<?xml version="1.0" encoding="UTF-8" standalone="no"?>
<!-- Created with Inkscape (http://www.inkscape.org/) -->

<svg
   xmlns:osb="http://www.openswatchbook.org/uri/2009/osb"
   xmlns:dc="http://purl.org/dc/elements/1.1/"
   xmlns:cc="http://creativecommons.org/ns#"
   xmlns:rdf="http://www.w3.org/1999/02/22-rdf-syntax-ns#"
   xmlns:svg="http://www.w3.org/2000/svg"
   xmlns="http://www.w3.org/2000/svg"
   xmlns:xlink="http://www.w3.org/1999/xlink"
   xmlns:sodipodi="http://sodipodi.sourceforge.net/DTD/sodipodi-0.dtd"
   xmlns:inkscape="http://www.inkscape.org/namespaces/inkscape"
   width="167.60364mm"
   height="60.954521mm"
   viewBox="0 0 167.60364 60.95452"
   version="1.1"
   id="svg8"
   inkscape:version="0.92.1 r15371"
   sodipodi:docname="StepIV_white_withSubTitle.svg">
  <defs
     id="defs2">
    <linearGradient
       id="linearGradient6043"
       osb:paint="solid">
      <stop
         style="stop-color:#ffffff;stop-opacity:1;"
         offset="0"
         id="stop6041" />
    </linearGradient>
    <linearGradient
       id="linearGradient6037"
       osb:paint="solid">
      <stop
         style="stop-color:#ffffff;stop-opacity:1;"
         offset="0"
         id="stop6035" />
    </linearGradient>
    <linearGradient
       id="linearGradient6007"
       osb:paint="solid">
      <stop
         style="stop-color:#ed872d;stop-opacity:1;"
         offset="0"
         id="stop6005" />
    </linearGradient>
    <linearGradient
       inkscape:collect="always"
       xlink:href="#linearGradient6037"
       id="linearGradient6045"
       x1="18.479443"
       y1="131.60609"
       x2="46.278049"
       y2="131.60609"
       gradientUnits="userSpaceOnUse" />
  </defs>
  <sodipodi:namedview
     id="base"
     pagecolor="#ffffff"
     bordercolor="#666666"
     borderopacity="1.0"
     inkscape:pageopacity="0.0"
     inkscape:pageshadow="2"
     inkscape:zoom="0.7"
     inkscape:cx="-63.25946"
     inkscape:cy="177.06318"
     inkscape:document-units="mm"
     inkscape:current-layer="text12"
     showgrid="false"
     inkscape:measure-start="0,0"
     inkscape:measure-end="0,0"
     inkscape:window-width="1920"
     inkscape:window-height="1001"
     inkscape:window-x="-9"
     inkscape:window-y="-9"
     inkscape:window-maximized="1"
     inkscape:pagecheckerboard="true" />
  <metadata
     id="metadata5">
    <rdf:RDF>
      <cc:Work
         rdf:about="">
        <dc:format>image/svg+xml</dc:format>
        <dc:type
           rdf:resource="http://purl.org/dc/dcmitype/StillImage" />
        <dc:title></dc:title>
      </cc:Work>
    </rdf:RDF>
  </metadata>
  <g
     inkscape:label="Layer 1"
     inkscape:groupmode="layer"
     id="layer1"
     transform="translate(-18.479442,-113.0842)">
    <g
       aria-label="StepIV"
       style="font-style:normal;font-variant:normal;font-weight:normal;font-stretch:normal;font-size:10.58333302px;line-height:1.25;font-family:Montserrat;-inkscape-font-specification:'Montserrat, Normal';font-variant-ligatures:normal;font-variant-caps:normal;font-variant-numeric:normal;font-feature-settings:normal;text-align:start;letter-spacing:0px;word-spacing:0px;writing-mode:lr-tb;text-anchor:start;fill:#000000;fill-opacity:1;stroke:none;stroke-width:0.26458332"
       id="text12">
      <path
         d="m 32.277356,118.75369 q -2.5908,0 -4.2672,1.0668 -1.676399,1.0668 -1.676399,3.2512 0,2.1336 1.676399,3.302 1.6764,1.1176 7.112,2.4384 5.4864,1.3208 8.2296,3.7084 2.794,2.3876 2.794,7.0612 0,4.6228 -3.5052,7.5184 -3.5052,2.8956 -9.1948,2.8956 -8.331199,0 -14.782799,-5.7404 l 3.7592,-4.5212 q 5.384799,4.6736 11.175999,4.6736 2.8956,0 4.572,-1.2192 1.7272,-1.27 1.7272,-3.302 0,-2.0828 -1.6256,-3.2004 -1.5748,-1.1684 -5.4864,-2.0828 -3.9116,-0.9652 -5.9436,-1.7272 -2.031999,-0.8128 -3.606799,-2.0828 -3.1496,-2.3876 -3.1496,-7.3152 0,-4.9276 3.556,-7.5692 3.606799,-2.6924 8.889999,-2.6924 3.4036,0 6.7564,1.1176 3.3528,1.1176 5.7912,3.1496 l -3.2004,4.5212 q -1.5748,-1.4224 -4.2672,-2.3368 -2.6924,-0.9144 -5.334,-0.9144 z"
         style="font-style:normal;font-variant:normal;font-weight:normal;font-stretch:normal;font-size:50.79999924px;font-family:Montserrat;-inkscape-font-specification:'Montserrat, Normal';font-variant-ligatures:normal;font-variant-caps:normal;font-variant-numeric:normal;font-feature-settings:normal;text-align:start;writing-mode:lr-tb;text-anchor:start;opacity:0.95999995;fill:#ffffff;fill-opacity:1;stroke:url(#linearGradient6045);stroke-width:0.26458332;stroke-opacity:1"
         id="path16"
         inkscape:connector-curvature="0" />
      <path
         d="m 59.208499,127.13569 v 13.716 q 0,1.9304 1.016,3.0988 1.016,1.1176 2.8448,1.1176 1.8288,0 3.5052,-1.778 l 2.3368,4.0132 q -2.9972,2.6924 -6.6548,2.6924 -3.6068,0 -6.197599,-2.4892 -2.54,-2.54 -2.54,-6.8072 v -13.5636 h -3.4036 v -4.572 h 3.4036 v -8.4836 h 5.689599 v 8.4836 h 7.112 v 4.572 z"
         style="font-style:normal;font-variant:normal;font-weight:normal;font-stretch:normal;font-size:50.79999924px;font-family:Montserrat;-inkscape-font-specification:'Montserrat, Normal';font-variant-ligatures:normal;font-variant-caps:normal;font-variant-numeric:normal;font-feature-settings:normal;text-align:start;writing-mode:lr-tb;text-anchor:start;fill:#ffffff;fill-opacity:1;stroke-width:0.26458332"
         id="path18"
         inkscape:connector-curvature="0" />
      <path
         d="m 98.576914,138.56569 h -21.1836 q 0.2032,2.9464 2.6924,4.7752 2.4892,1.778 5.6896,1.778 5.08,0 7.7216,-3.2004 l 3.2512,3.556 q -4.3688,4.5212 -11.3792,4.5212 -5.6896,0 -9.7028,-3.7592 -3.9624,-3.81 -3.9624,-10.16 0,-6.4008 4.064,-10.16 4.064,-3.7592 9.5504,-3.7592 5.5372,0 9.398,3.3528 3.8608,3.302 3.8608,9.144 z m -21.1836,-4.4704 h 15.494 q 0,-3.4036 -2.1336,-5.2324 -2.1336,-1.8288 -5.2832,-1.8288 -3.0988,0 -5.588,1.9304 -2.4892,1.8796 -2.4892,5.1308 z"
         style="font-style:normal;font-variant:normal;font-weight:normal;font-stretch:normal;font-size:50.79999924px;font-family:Montserrat;-inkscape-font-specification:'Montserrat, Normal';font-variant-ligatures:normal;font-variant-caps:normal;font-variant-numeric:normal;font-feature-settings:normal;text-align:start;writing-mode:lr-tb;text-anchor:start;fill:#ffffff;fill-opacity:1;stroke-width:0.26458332"
         id="path20"
         inkscape:connector-curvature="0" />
      <path
         d="m 119.26204,122.15729 q 5.4356,0 9.2964,3.7592 3.8608,3.7592 3.8608,10.0076 0,6.2484 -3.8608,10.16 -3.81,3.9116 -8.9408,3.9116 -5.08,0 -9.144,-4.4704 v 13.9192 h -5.6896 v -36.8808 h 5.6896 v 4.7244 q 3.3528,-5.1308 8.7884,-5.1308 z m -8.89,13.97 q 0,3.8608 2.3368,6.35 2.3368,2.4384 5.6896,2.4384 3.3528,0 5.842,-2.4384 2.4892,-2.4384 2.4892,-6.2992 0,-3.9116 -2.4384,-6.4516 -2.4384,-2.5908 -5.842,-2.5908 -3.4036,0 -5.7404,2.5908 -2.3368,2.54 -2.3368,6.4008 z"
         style="font-style:normal;font-variant:normal;font-weight:normal;font-stretch:normal;font-size:50.79999924px;font-family:Montserrat;-inkscape-font-specification:'Montserrat, Normal';font-variant-ligatures:normal;font-variant-caps:normal;font-variant-numeric:normal;font-feature-settings:normal;text-align:start;writing-mode:lr-tb;text-anchor:start;fill:#ffffff;fill-opacity:1;stroke-width:0.26458332"
         id="path22"
         inkscape:connector-curvature="0" />
      <path
         d="m 139.72808,114.08009 h 5.9944 v 35.5092 h -5.9944 z"
         style="font-style:normal;font-variant:normal;font-weight:normal;font-stretch:normal;font-size:50.79999924px;font-family:Montserrat;-inkscape-font-specification:'Montserrat, Normal';font-variant-ligatures:normal;font-variant-caps:normal;font-variant-numeric:normal;font-feature-settings:normal;text-align:start;writing-mode:lr-tb;text-anchor:start;fill:#ed872d;fill-opacity:1;stroke-width:0.26458332"
         id="path24"
         inkscape:connector-curvature="0" />
      <path
         d="m 171.80828,149.58929 h -6.7056 l -14.2748,-35.5092 h 6.7056 l 10.922,26.5176 10.922,-26.5176 h 6.7056 z"
         style="font-style:normal;font-variant:normal;font-weight:normal;font-stretch:normal;font-size:50.79999924px;font-family:Montserrat;-inkscape-font-specification:'Montserrat, Normal';font-variant-ligatures:normal;font-variant-caps:normal;font-variant-numeric:normal;font-feature-settings:normal;text-align:start;writing-mode:lr-tb;text-anchor:start;fill:#ed872d;fill-opacity:1;stroke-width:0.26458332"
         id="path26"
         inkscape:connector-curvature="0" />
      <g
         aria-label="
G  a  m  e  S  t  u  d  i  o"
         style="font-style:normal;font-weight:normal;font-size:10.58333302px;line-height:1.25;font-family:sans-serif;letter-spacing:0px;word-spacing:0px;fill:#646464;fill-opacity:1;stroke:none;stroke-width:0.07000434"
         id="text5771">
        <path
           d="m 30.641274,169.12805 h 1.665111 v 3.37256 q -1.397,1.53811 -3.993444,1.53811 -2.187223,0 -3.668889,-1.43933 -1.467556,-1.43934 -1.467556,-3.64067 0,-2.20133 1.495778,-3.66889 1.509889,-1.46755 3.640667,-1.46755 2.130777,0 3.541888,1.24177 l -0.889,1.27 q -0.578555,-0.49389 -1.171222,-0.67733 -0.578555,-0.19756 -1.354666,-0.19756 -1.495778,0 -2.511778,0.97367 -1.016,0.95956 -1.016,2.54 0,1.56633 0.987778,2.52589 0.987777,0.94544 2.384777,0.94544 1.411111,0 2.356556,-0.60677 z"
           style="font-style:normal;font-variant:normal;font-weight:normal;font-stretch:normal;font-size:14.11111069px;font-family:Montserrat;-inkscape-font-specification:'Montserrat, Normal';font-variant-ligatures:normal;font-variant-caps:normal;font-variant-numeric:normal;font-feature-settings:normal;text-align:start;writing-mode:lr-tb;text-anchor:start;fill:#c8c8c8;fill-opacity:1;stroke-width:0.07000434"
           id="path5775" />
        <path
           d="m 48.078196,173.92583 h -1.439333 v -1.00189 q -0.931333,1.11478 -2.497666,1.11478 -1.171223,0 -1.947334,-0.66322 -0.762,-0.66322 -0.762,-1.76389 0,-1.11478 0.818445,-1.66511 0.818444,-0.55034 2.215444,-0.55034 h 2.046111 v -0.28222 q 0,-1.49578 -1.665111,-1.49578 -1.044222,0 -2.173111,0.762 l -0.705556,-0.98777 q 1.368778,-1.08656 3.104445,-1.08656 1.326444,0 2.159,0.67733 0.846666,0.66323 0.846666,2.10256 z m -1.580444,-2.794 v -0.635 h -1.778 q -1.707444,0 -1.707444,1.07245 0,0.55033 0.423333,0.84666 0.423333,0.28222 1.171222,0.28222 0.762,0 1.326445,-0.42333 0.564444,-0.42333 0.564444,-1.143 z"
           style="font-style:normal;font-variant:normal;font-weight:normal;font-stretch:normal;font-size:14.11111069px;font-family:Montserrat;-inkscape-font-specification:'Montserrat, Normal';font-variant-ligatures:normal;font-variant-caps:normal;font-variant-numeric:normal;font-feature-settings:normal;text-align:start;writing-mode:lr-tb;text-anchor:start;fill:#c8c8c8;fill-opacity:1;stroke-width:0.07000434"
           id="path5777" />
        <path
           d="m 59.589556,169.86183 v 4.064 h -1.580444 v -7.50711 h 1.580444 v 1.36878 q 0.338667,-0.69145 1.016,-1.08656 0.691445,-0.39511 1.481667,-0.39511 1.778,0 2.413,1.46756 1.114777,-1.46756 2.779888,-1.46756 1.27,0 2.046111,0.77611 0.790223,0.77611 0.790223,2.24367 v 4.60022 H 68.536 v -4.12044 q 0,-2.07434 -1.721555,-2.07434 -0.804334,0 -1.411111,0.52211 -0.592667,0.508 -0.620889,1.49578 v 4.17689 H 63.202 v -4.12044 q 0,-1.07245 -0.381,-1.56634 -0.381,-0.508 -1.199444,-0.508 -0.818444,0 -1.425222,0.55034 -0.606778,0.53622 -0.606778,1.58044 z"
           style="font-style:normal;font-variant:normal;font-weight:normal;font-stretch:normal;font-size:14.11111069px;font-family:Montserrat;-inkscape-font-specification:'Montserrat, Normal';font-variant-ligatures:normal;font-variant-caps:normal;font-variant-numeric:normal;font-feature-settings:normal;text-align:start;writing-mode:lr-tb;text-anchor:start;fill:#c8c8c8;fill-opacity:1;stroke-width:0.07000434"
           id="path5779" />
        <path
           d="m 87.015161,170.86372 h -5.884333 q 0.05644,0.81844 0.747889,1.32644 0.691444,0.49389 1.580444,0.49389 1.411111,0 2.144889,-0.889 l 0.903111,0.98778 q -1.213555,1.25589 -3.160889,1.25589 -1.580444,0 -2.695222,-1.04422 -1.100667,-1.05834 -1.100667,-2.82222 0,-1.778 1.128889,-2.82223 1.128889,-1.04422 2.652889,-1.04422 1.538111,0 2.610556,0.93133 1.072444,0.91723 1.072444,2.54 z m -5.884333,-1.24178 h 4.303889 q 0,-0.94544 -0.592667,-1.45344 -0.592667,-0.508 -1.467556,-0.508 -0.860777,0 -1.552222,0.53622 -0.691444,0.52211 -0.691444,1.42522 z"
           style="font-style:normal;font-variant:normal;font-weight:normal;font-stretch:normal;font-size:14.11111069px;font-family:Montserrat;-inkscape-font-specification:'Montserrat, Normal';font-variant-ligatures:normal;font-variant-caps:normal;font-variant-numeric:normal;font-feature-settings:normal;text-align:start;writing-mode:lr-tb;text-anchor:start;fill:#c8c8c8;fill-opacity:1;stroke-width:0.07000434"
           id="path5781" />
        <path
           d="m 99.659599,165.36039 q -0.719666,0 -1.185333,0.29633 -0.465666,0.29633 -0.465666,0.90311 0,0.59267 0.465666,0.91722 0.465667,0.31045 1.975554,0.67734 1.524,0.36689 2.286,1.03011 0.77611,0.66322 0.77611,1.96144 0,1.28411 -0.97366,2.08845 -0.97367,0.80433 -2.554115,0.80433 -2.314222,0 -4.106333,-1.59456 l 1.044222,-1.25588 q 1.495778,1.29822 3.104446,1.29822 0.80433,0 1.27,-0.33867 0.47978,-0.35278 0.47978,-0.91722 0,-0.57856 -0.45156,-0.889 -0.43744,-0.32456 -1.523999,-0.57856 -1.086556,-0.26811 -1.651,-0.47977 -0.564445,-0.22578 -1.001889,-0.57856 -0.874889,-0.66322 -0.874889,-2.032 0,-1.36878 0.987778,-2.10256 1.001889,-0.74788 2.469444,-0.74788 0.945445,0 1.876775,0.31044 0.93134,0.31044 1.60867,0.87489 l -0.889,1.25589 q -0.43745,-0.39511 -1.18533,-0.64911 -0.74789,-0.254 -1.481671,-0.254 z"
           style="font-style:normal;font-variant:normal;font-weight:normal;font-stretch:normal;font-size:14.11111069px;font-family:Montserrat;-inkscape-font-specification:'Montserrat, Normal';font-variant-ligatures:normal;font-variant-caps:normal;font-variant-numeric:normal;font-feature-settings:normal;text-align:start;writing-mode:lr-tb;text-anchor:start;fill:#c8c8c8;fill-opacity:1;stroke-width:0.07000434"
           id="path5783" />
        <path
           d="m 115.02285,167.68872 v 3.81 q 0,0.53622 0.28222,0.86078 0.28223,0.31044 0.79023,0.31044 0.508,0 0.97366,-0.49389 l 0.64911,1.11478 q -0.83255,0.74789 -1.84855,0.74789 -1.00189,0 -1.72156,-0.69144 -0.70555,-0.70556 -0.70555,-1.89089 v -3.76767 h -0.94545 v -1.27 h 0.94545 v -2.35656 h 1.58044 v 2.35656 h 1.97556 v 1.27 z"
           style="font-style:normal;font-variant:normal;font-weight:normal;font-stretch:normal;font-size:14.11111069px;font-family:Montserrat;-inkscape-font-specification:'Montserrat, Normal';font-variant-ligatures:normal;font-variant-caps:normal;font-variant-numeric:normal;font-feature-settings:normal;text-align:start;writing-mode:lr-tb;text-anchor:start;fill:#c8c8c8;fill-opacity:1;stroke-width:0.07000434"
           id="path5785" />
        <path
           d="m 131.93986,170.48272 v -4.064 h 1.58045 v 7.50711 h -1.58045 v -1.36878 q -0.381,0.69145 -1.05833,1.08656 -0.66322,0.39511 -1.43933,0.39511 -1.27,0 -2.06022,-0.77611 -0.77612,-0.77611 -0.77612,-2.24367 v -4.60022 h 1.58045 v 4.12044 q 0,2.07434 1.72155,2.07434 0.81845,0 1.42523,-0.53622 0.60677,-0.55034 0.60677,-1.59456 z"
           style="font-style:normal;font-variant:normal;font-weight:normal;font-stretch:normal;font-size:14.11111069px;font-family:Montserrat;-inkscape-font-specification:'Montserrat, Normal';font-variant-ligatures:normal;font-variant-caps:normal;font-variant-numeric:normal;font-feature-settings:normal;text-align:start;writing-mode:lr-tb;text-anchor:start;fill:#c8c8c8;fill-opacity:1;stroke-width:0.07000434"
           id="path5787" />
        <path
           d="m 146.59227,174.03872 q -1.42522,0 -2.48355,-1.07244 -1.05834,-1.07245 -1.05834,-2.82223 0,-1.74977 1.08656,-2.794 1.08655,-1.04422 2.58233,-1.04422 1.50989,0 2.42711,1.27 v -4.12044 h 1.58045 v 10.47044 h -1.58045 v -1.12889 q -0.87489,1.24178 -2.55411,1.24178 z m -1.96144,-3.82411 q 0,1.07244 0.69144,1.74978 0.69145,0.67733 1.62278,0.67733 0.93133,0 1.58044,-0.67733 0.64912,-0.69145 0.64912,-1.76389 0,-1.07245 -0.64912,-1.79211 -0.64911,-0.71967 -1.59455,-0.71967 -0.94545,0 -1.62278,0.71967 -0.67733,0.71966 -0.67733,1.80622 z"
           style="font-style:normal;font-variant:normal;font-weight:normal;font-stretch:normal;font-size:14.11111069px;font-family:Montserrat;-inkscape-font-specification:'Montserrat, Normal';font-variant-ligatures:normal;font-variant-caps:normal;font-variant-numeric:normal;font-feature-settings:normal;text-align:start;writing-mode:lr-tb;text-anchor:start;fill:#c8c8c8;fill-opacity:1;stroke-width:0.07000434"
           id="path5789" />
        <path
           d="m 162.30853,173.92583 h -1.58045 v -7.50711 h 1.58045 z m -1.48167,-9.00289 q -0.29633,-0.29633 -0.29633,-0.70555 0,-0.40923 0.29633,-0.70556 0.29633,-0.29633 0.70556,-0.29633 0.40922,0 0.70555,0.29633 0.29634,0.29633 0.29634,0.70556 0,0.40922 -0.29634,0.70555 -0.29633,0.29634 -0.70555,0.29634 -0.40923,0 -0.70556,-0.29634 z"
           style="font-style:normal;font-variant:normal;font-weight:normal;font-stretch:normal;font-size:14.11111069px;font-family:Montserrat;-inkscape-font-specification:'Montserrat, Normal';font-variant-ligatures:normal;font-variant-caps:normal;font-variant-numeric:normal;font-feature-settings:normal;text-align:start;writing-mode:lr-tb;text-anchor:start;fill:#c8c8c8;fill-opacity:1;stroke-width:0.07000434"
           id="path5791" />
        <path
           d="m 174.05338,171.95028 q 0.67733,0.67733 1.70744,0.67733 1.03011,0 1.69333,-0.67733 0.67734,-0.69145 0.67734,-1.778 0,-1.08656 -0.67734,-1.76389 -0.66322,-0.69145 -1.69333,-0.69145 -1.03011,0 -1.70744,0.69145 -0.66323,0.67733 -0.66323,1.76389 0,1.08655 0.66323,1.778 z m 4.52966,0.97366 q -1.12889,1.11478 -2.82222,1.11478 -1.69333,0 -2.82222,-1.11478 -1.12889,-1.12889 -1.12889,-2.75166 0,-1.62278 1.12889,-2.73756 1.12889,-1.12889 2.82222,-1.12889 1.69333,0 2.82222,1.12889 1.12889,1.11478 1.12889,2.73756 0,1.62277 -1.12889,2.75166 z"
           style="font-style:normal;font-variant:normal;font-weight:normal;font-stretch:normal;font-size:14.11111069px;font-family:Montserrat;-inkscape-font-specification:'Montserrat, Normal';font-variant-ligatures:normal;font-variant-caps:normal;font-variant-numeric:normal;font-feature-settings:normal;text-align:start;writing-mode:lr-tb;text-anchor:start;fill:#c8c8c8;fill-opacity:1;stroke-width:0.07000434"
           id="path5793" />
      </g>
    </g>
  </g>
</svg>
