<?xml version="1.0" encoding="UTF-8" standalone="no"?>
<!-- Created with Inkscape (http://www.inkscape.org/) -->

<svg
   xmlns:dc="http://purl.org/dc/elements/1.1/"
   xmlns:cc="http://creativecommons.org/ns#"
   xmlns:rdf="http://www.w3.org/1999/02/22-rdf-syntax-ns#"
   xmlns:svg="http://www.w3.org/2000/svg"
   xmlns="http://www.w3.org/2000/svg"
   xmlns:sodipodi="http://sodipodi.sourceforge.net/DTD/sodipodi-0.dtd"
   xmlns:inkscape="http://www.inkscape.org/namespaces/inkscape"
   width="134.9809mm"
   height="69.603928mm"
   viewBox="0 0 134.9809 69.603928"
   version="1.1"
   id="svg4521"
   inkscape:version="0.92.1 r15371"
   sodipodi:docname="contact_info.svg">
  <defs
     id="defs4515" />
  <sodipodi:namedview
     id="base"
     pagecolor="#ffffff"
     bordercolor="#666666"
     borderopacity="1.0"
     inkscape:pageopacity="0.0"
     inkscape:pageshadow="2"
     inkscape:zoom="1.979899"
     inkscape:cx="195.3164"
     inkscape:cy="143.92581"
     inkscape:document-units="mm"
     inkscape:current-layer="text5068"
     showgrid="false"
     inkscape:window-width="1920"
     inkscape:window-height="1001"
     inkscape:window-x="-9"
     inkscape:window-y="-9"
     inkscape:window-maximized="1"
     inkscape:pagecheckerboard="true" />
  <metadata
     id="metadata4518">
    <rdf:RDF>
      <cc:Work
         rdf:about="">
        <dc:format>image/svg+xml</dc:format>
        <dc:type
           rdf:resource="http://purl.org/dc/dcmitype/StillImage" />
        <dc:title></dc:title>
      </cc:Work>
    </rdf:RDF>
  </metadata>
  <g
     inkscape:label="Layer 1"
     inkscape:groupmode="layer"
     id="layer1"
     transform="translate(-31.428129,-83.683618)">
    <g
       aria-label="Eddie Rodriguez
Founder &amp; Developer

www.stepiv.com
contact@stepiv.com
"
       style="font-style:normal;font-weight:normal;font-size:10.58333302px;line-height:1.25;font-family:sans-serif;letter-spacing:0px;word-spacing:0px;fill:#000000;fill-opacity:1;stroke:none;stroke-width:0.26458332"
       id="text5068">
      <path
         d="M 39.723919,94.404755 H 32.303183 V 84.145261 h 7.420736 v 1.984375 h -4.788683 v 1.770779 h 4.444173 v 1.984374 h -4.444173 v 2.535591 h 4.788683 z"
         style="font-style:normal;font-variant:normal;font-weight:bold;font-stretch:normal;font-size:14.11111069px;font-family:sans-serif;-inkscape-font-specification:'sans-serif, Bold';font-variant-ligatures:normal;font-variant-caps:normal;font-variant-numeric:normal;font-feature-settings:normal;text-align:start;writing-mode:lr-tb;text-anchor:start;stroke-width:0.26458332;fill:#fdfdff;fill-opacity:0.99215686"
         id="path5080" />
      <path
         d="m 49.335735,94.404755 h -2.480469 v -0.806153 q -0.640788,0.523655 -1.198893,0.771702 -0.558105,0.248047 -1.288466,0.248047 -1.412489,0 -2.259982,-1.088651 -0.847494,-1.08865 -0.847494,-2.935221 0,-0.985297 0.282498,-1.743218 0.289388,-0.764811 0.785482,-1.309136 0.468533,-0.516765 1.136881,-0.799262 0.668349,-0.289389 1.336697,-0.289389 0.69591,0 1.136882,0.151585 0.447862,0.144694 0.916395,0.37207 v -3.293511 h 2.480469 z M 46.855266,92.268796 V 88.4723 q -0.261827,-0.110243 -0.551215,-0.158474 -0.289388,-0.04823 -0.530545,-0.04823 -0.978407,0 -1.46761,0.613227 -0.489204,0.606336 -0.489204,1.688096 0,1.136882 0.392741,1.653646 0.392741,0.509874 1.260905,0.509874 0.337619,0 0.71658,-0.124023 0.37896,-0.130914 0.668348,-0.337619 z"
         style="font-style:normal;font-variant:normal;font-weight:bold;font-stretch:normal;font-size:14.11111069px;font-family:sans-serif;-inkscape-font-specification:'sans-serif, Bold';font-variant-ligatures:normal;font-variant-caps:normal;font-variant-numeric:normal;font-feature-settings:normal;text-align:start;writing-mode:lr-tb;text-anchor:start;stroke-width:0.26458332;fill:#fdfdff;fill-opacity:0.99215686"
         id="path5082" />
      <path
         d="m 59.202487,94.404755 h -2.480468 v -0.806153 q -0.640788,0.523655 -1.198893,0.771702 -0.558106,0.248047 -1.288466,0.248047 -1.412489,0 -2.259983,-1.088651 -0.847493,-1.08865 -0.847493,-2.935221 0,-0.985297 0.282498,-1.743218 0.289388,-0.764811 0.785481,-1.309136 0.468533,-0.516765 1.136882,-0.799262 0.668348,-0.289389 1.336697,-0.289389 0.695909,0 1.136881,0.151585 0.447863,0.144694 0.916396,0.37207 v -3.293511 h 2.480468 z M 56.722019,92.268796 V 88.4723 q -0.261827,-0.110243 -0.551215,-0.158474 -0.289388,-0.04823 -0.530545,-0.04823 -0.978407,0 -1.467611,0.613227 -0.489203,0.606336 -0.489203,1.688096 0,1.136882 0.392741,1.653646 0.39274,0.509874 1.260904,0.509874 0.33762,0 0.71658,-0.124023 0.378961,-0.130914 0.668349,-0.337619 z"
         style="font-style:normal;font-variant:normal;font-weight:bold;font-stretch:normal;font-size:14.11111069px;font-family:sans-serif;-inkscape-font-specification:'sans-serif, Bold';font-variant-ligatures:normal;font-variant-caps:normal;font-variant-numeric:normal;font-feature-settings:normal;text-align:start;writing-mode:lr-tb;text-anchor:start;stroke-width:0.26458332;fill:#fdfdff;fill-opacity:0.99215686"
         id="path5084" />
      <path
         d="M 64.025622,94.404755 H 61.545154 V 86.66707 h 2.480468 z m 0.0689,-8.840115 h -2.618272 v -1.881022 h 2.618272 z"
         style="font-style:normal;font-variant:normal;font-weight:bold;font-stretch:normal;font-size:14.11111069px;font-family:sans-serif;-inkscape-font-specification:'sans-serif, Bold';font-variant-ligatures:normal;font-variant-caps:normal;font-variant-numeric:normal;font-feature-settings:normal;text-align:start;writing-mode:lr-tb;text-anchor:start;stroke-width:0.26458332;fill:#fdfdff;fill-opacity:0.99215686"
         id="path5086" />
      <path
         d="m 73.988838,90.99411 h -5.677517 q 0.05512,0.909505 0.689019,1.391819 0.640788,0.482313 1.881022,0.482313 0.785482,0 1.522732,-0.282498 0.737251,-0.282498 1.164443,-0.606337 h 0.275607 v 1.991266 q -0.840603,0.337619 -1.584744,0.489203 -0.74414,0.151584 -1.646755,0.151584 -2.328885,0 -3.569119,-1.047309 -1.240234,-1.047309 -1.240234,-2.983452 0,-1.915473 1.171332,-3.031684 1.178223,-1.123101 3.224609,-1.123101 1.887912,0 2.838759,0.957736 0.950846,0.950847 0.950846,2.742296 z M 71.52215,89.54028 q -0.02067,-0.778592 -0.385851,-1.171332 -0.36518,-0.392741 -1.136881,-0.392741 -0.71658,0 -1.178223,0.37207 -0.461643,0.37207 -0.516764,1.192003 z"
         style="font-style:normal;font-variant:normal;font-weight:bold;font-stretch:normal;font-size:14.11111069px;font-family:sans-serif;-inkscape-font-specification:'sans-serif, Bold';font-variant-ligatures:normal;font-variant-caps:normal;font-variant-numeric:normal;font-feature-settings:normal;text-align:start;writing-mode:lr-tb;text-anchor:start;stroke-width:0.26458332;fill:#fdfdff;fill-opacity:0.99215686"
         id="path5088" />
      <path
         d="m 86.453195,87.287188 q 0,-0.385851 -0.158475,-0.661459 -0.158474,-0.275607 -0.544325,-0.434082 -0.268717,-0.110243 -0.627007,-0.130913 -0.35829,-0.02756 -0.833713,-0.02756 h -0.957737 v 2.762966 h 0.813043 q 0.633897,0 1.061089,-0.06201 0.427192,-0.06201 0.71658,-0.282498 0.275607,-0.213596 0.399631,-0.468533 0.130914,-0.261827 0.130914,-0.695909 z m 4.127224,7.117567 h -3.2315 L 84.551502,90.64271 h -1.219564 v 3.762045 H 80.699885 V 84.145261 h 4.437283 q 0.909505,0 1.564073,0.103352 0.654569,0.103353 1.226454,0.447863 0.578776,0.344509 0.916396,0.895725 0.344509,0.544325 0.344509,1.371148 0,1.136881 -0.530544,1.853461 -0.523655,0.71658 -1.502062,1.192003 z"
         style="font-style:normal;font-variant:normal;font-weight:bold;font-stretch:normal;font-size:14.11111069px;font-family:sans-serif;-inkscape-font-specification:'sans-serif, Bold';font-variant-ligatures:normal;font-variant-caps:normal;font-variant-numeric:normal;font-feature-settings:normal;text-align:start;writing-mode:lr-tb;text-anchor:start;stroke-width:0.26458332;fill:#fdfdff;fill-opacity:0.99215686"
         id="path5090" />
      <path
         d="m 99.523885,90.539358 q 0,1.908582 -1.116211,3.011013 -1.109321,1.09554 -3.121256,1.09554 -2.011936,0 -3.128147,-1.09554 -1.109321,-1.102431 -1.109321,-3.011013 0,-1.922364 1.116211,-3.017904 1.123101,-1.09554 3.121257,-1.09554 2.025716,0 3.128146,1.10243 1.109321,1.102431 1.109321,3.011014 z m -3.052354,1.881022 q 0.241156,-0.296279 0.358289,-0.70969 0.124024,-0.420302 0.124024,-1.157552 0,-0.682129 -0.124024,-1.143772 -0.124023,-0.461642 -0.344509,-0.73725 -0.220486,-0.282498 -0.530545,-0.399631 -0.310058,-0.117133 -0.668348,-0.117133 -0.35829,0 -0.640788,0.09646 -0.275608,0.09646 -0.530545,0.385851 -0.227376,0.268717 -0.36518,0.73725 -0.130913,0.468533 -0.130913,1.178223 0,0.633898 0.117133,1.102431 0.117133,0.461642 0.344509,0.74414 0.220486,0.268718 0.523655,0.392741 0.310058,0.124023 0.702799,0.124023 0.33762,0 0.640788,-0.110243 0.310059,-0.117133 0.523655,-0.38585 z"
         style="font-style:normal;font-variant:normal;font-weight:bold;font-stretch:normal;font-size:14.11111069px;font-family:sans-serif;-inkscape-font-specification:'sans-serif, Bold';font-variant-ligatures:normal;font-variant-caps:normal;font-variant-numeric:normal;font-feature-settings:normal;text-align:start;writing-mode:lr-tb;text-anchor:start;stroke-width:0.26458332;fill:#fdfdff;fill-opacity:0.99215686"
         id="path5092" />
      <path
         d="m 108.83942,94.404755 h -2.48047 v -0.806153 q -0.64078,0.523655 -1.19889,0.771702 -0.5581,0.248047 -1.28846,0.248047 -1.41249,0 -2.25999,-1.088651 -0.84749,-1.08865 -0.84749,-2.935221 0,-0.985297 0.2825,-1.743218 0.28939,-0.764811 0.78548,-1.309136 0.46853,-0.516765 1.13688,-0.799262 0.66835,-0.289389 1.3367,-0.289389 0.69591,0 1.13688,0.151585 0.44786,0.144694 0.91639,0.37207 v -3.293511 h 2.48047 z m -2.48047,-2.135959 V 88.4723 q -0.26182,-0.110243 -0.55121,-0.158474 -0.28939,-0.04823 -0.53054,-0.04823 -0.97841,0 -1.46762,0.613227 -0.4892,0.606336 -0.4892,1.688096 0,1.136882 0.39274,1.653646 0.39274,0.509874 1.26091,0.509874 0.33762,0 0.71658,-0.124023 0.37896,-0.130914 0.66834,-0.337619 z"
         style="font-style:normal;font-variant:normal;font-weight:bold;font-stretch:normal;font-size:14.11111069px;font-family:sans-serif;-inkscape-font-specification:'sans-serif, Bold';font-variant-ligatures:normal;font-variant-caps:normal;font-variant-numeric:normal;font-feature-settings:normal;text-align:start;writing-mode:lr-tb;text-anchor:start;stroke-width:0.26458332;fill:#fdfdff;fill-opacity:0.99215686"
         id="path5094" />
      <path
         d="m 116.7907,89.030406 h -0.22048 q -0.15848,-0.05512 -0.50988,-0.08268 -0.3514,-0.02756 -0.58566,-0.02756 -0.53055,0 -0.93707,0.0689 -0.40652,0.0689 -0.87505,0.234266 v 5.181424 h -2.48047 V 86.66707 h 2.48047 v 1.136882 q 0.81993,-0.7028 1.42627,-0.930176 0.60633,-0.234266 1.11621,-0.234266 0.13091,0 0.29628,0.0069 0.16536,0.0069 0.28938,0.02067 z"
         style="font-style:normal;font-variant:normal;font-weight:bold;font-stretch:normal;font-size:14.11111069px;font-family:sans-serif;-inkscape-font-specification:'sans-serif, Bold';font-variant-ligatures:normal;font-variant-caps:normal;font-variant-numeric:normal;font-feature-settings:normal;text-align:start;writing-mode:lr-tb;text-anchor:start;stroke-width:0.26458332;fill:#fdfdff;fill-opacity:0.99215686"
         id="path5096" />
      <path
         d="m 120.69055,94.404755 h -2.48047 V 86.66707 h 2.48047 z m 0.0689,-8.840115 h -2.61827 v -1.881022 h 2.61827 z"
         style="font-style:normal;font-variant:normal;font-weight:bold;font-stretch:normal;font-size:14.11111069px;font-family:sans-serif;-inkscape-font-specification:'sans-serif, Bold';font-variant-ligatures:normal;font-variant-caps:normal;font-variant-numeric:normal;font-feature-settings:normal;text-align:start;writing-mode:lr-tb;text-anchor:start;stroke-width:0.26458332;fill:#fdfdff;fill-opacity:0.99215686"
         id="path5098" />
      <path
         d="m 130.5573,93.51592 q 0,1.08865 -0.31005,1.832791 -0.31006,0.74414 -0.86817,1.164442 -0.5581,0.427192 -1.35048,0.613227 -0.78548,0.192925 -1.77767,0.192925 -0.80615,0 -1.59163,-0.09646 -0.77859,-0.09646 -1.35048,-0.234267 v -1.936143 h 0.30317 q 0.45475,0.179145 1.10932,0.323839 0.65457,0.151584 1.17133,0.151584 0.68902,0 1.11622,-0.130914 0.43408,-0.124023 0.66145,-0.35829 0.2136,-0.220486 0.31006,-0.564995 0.0965,-0.34451 0.0965,-0.826823 V 93.50214 q -0.44787,0.36518 -0.99219,0.578776 -0.54433,0.213596 -1.21268,0.213596 -1.62608,0 -2.50803,-0.978408 -0.88194,-0.978407 -0.88194,-2.976562 0,-0.957736 0.26872,-1.653646 0.26872,-0.695909 0.75792,-1.212673 0.45475,-0.482314 1.11621,-0.751031 0.66835,-0.268718 1.36426,-0.268718 0.627,0 1.13688,0.151585 0.51676,0.144694 0.93706,0.406521 l 0.0896,-0.34451 h 2.40467 z m -2.48046,-1.550293 V 88.45852 q -0.2136,-0.08957 -0.52366,-0.137804 -0.31006,-0.05512 -0.5581,-0.05512 -0.97841,0 -1.46762,0.564995 -0.4892,0.558106 -0.4892,1.564074 0,1.116211 0.41341,1.557183 0.4203,0.440972 1.24024,0.440972 0.37207,0 0.73036,-0.117133 0.35829,-0.117134 0.65457,-0.310059 z"
         style="font-style:normal;font-variant:normal;font-weight:bold;font-stretch:normal;font-size:14.11111069px;font-family:sans-serif;-inkscape-font-specification:'sans-serif, Bold';font-variant-ligatures:normal;font-variant-caps:normal;font-variant-numeric:normal;font-feature-settings:normal;text-align:start;writing-mode:lr-tb;text-anchor:start;stroke-width:0.26458332;fill:#fdfdff;fill-opacity:0.99215686"
         id="path5100" />
      <path
         d="m 140.61009,94.404755 h -2.48047 v -0.854384 q -0.68902,0.523654 -1.2609,0.799262 -0.57189,0.268718 -1.36426,0.268718 -1.28158,0 -1.97748,-0.737251 -0.68902,-0.73725 -0.68902,-2.1773 v -5.03673 h 2.49425 v 3.837837 q 0,0.585666 0.0344,0.978407 0.0413,0.38585 0.17914,0.640787 0.13092,0.254938 0.39274,0.372071 0.26872,0.117133 0.74414,0.117133 0.31695,0 0.7028,-0.117133 0.38585,-0.117133 0.74414,-0.34451 V 86.66707 h 2.48047 z"
         style="font-style:normal;font-variant:normal;font-weight:bold;font-stretch:normal;font-size:14.11111069px;font-family:sans-serif;-inkscape-font-specification:'sans-serif, Bold';font-variant-ligatures:normal;font-variant-caps:normal;font-variant-numeric:normal;font-feature-settings:normal;text-align:start;writing-mode:lr-tb;text-anchor:start;stroke-width:0.26458332;fill:#fdfdff;fill-opacity:0.99215686"
         id="path5102" />
      <path
         d="m 150.5802,90.99411 h -5.67752 q 0.0551,0.909505 0.68902,1.391819 0.64079,0.482313 1.88102,0.482313 0.78548,0 1.52273,-0.282498 0.73725,-0.282498 1.16444,-0.606337 h 0.27561 v 1.991266 q -0.8406,0.337619 -1.58474,0.489203 -0.74414,0.151584 -1.64676,0.151584 -2.32888,0 -3.56912,-1.047309 -1.24023,-1.047309 -1.24023,-2.983452 0,-1.915473 1.17133,-3.031684 1.17822,-1.123101 3.22461,-1.123101 1.88791,0 2.83876,0.957736 0.95085,0.950847 0.95085,2.742296 z m -2.46669,-1.45383 q -0.0207,-0.778592 -0.38585,-1.171332 -0.36518,-0.392741 -1.13688,-0.392741 -0.71658,0 -1.17823,0.37207 -0.46164,0.37207 -0.51676,1.192003 z"
         style="font-style:normal;font-variant:normal;font-weight:bold;font-stretch:normal;font-size:14.11111069px;font-family:sans-serif;-inkscape-font-specification:'sans-serif, Bold';font-variant-ligatures:normal;font-variant-caps:normal;font-variant-numeric:normal;font-feature-settings:normal;text-align:start;writing-mode:lr-tb;text-anchor:start;stroke-width:0.26458332;fill:#fdfdff;fill-opacity:0.99215686"
         id="path5104" />
      <path
         d="m 159.0069,94.404755 h -7.26915 v -1.591634 l 4.07899,-4.33393 h -3.91363 V 86.66707 h 7.028 v 1.564074 l -4.01698,4.32704 h 4.09277 z"
         style="font-style:normal;font-variant:normal;font-weight:bold;font-stretch:normal;font-size:14.11111069px;font-family:sans-serif;-inkscape-font-specification:'sans-serif, Bold';font-variant-ligatures:normal;font-variant-caps:normal;font-variant-numeric:normal;font-feature-settings:normal;text-align:start;writing-mode:lr-tb;text-anchor:start;stroke-width:0.26458332;fill:#fdfdff;fill-opacity:0.99215686"
         id="path5106" />
      <path
         d="m 39.229203,102.5707 h -4.663281 l -0.626318,2.6789 h 4.012158 l -0.241846,1.0418 h -4.005957 l -1.035595,4.46484 h -1.240235 l 2.133203,-9.23354 h 5.903516 z"
         style="font-style:italic;font-variant:normal;font-weight:normal;font-stretch:normal;font-size:12.69999981px;font-family:sans-serif;-inkscape-font-specification:'sans-serif, Italic';font-variant-ligatures:normal;font-variant-caps:normal;font-variant-numeric:normal;font-feature-settings:normal;text-align:start;writing-mode:lr-tb;text-anchor:start;stroke-width:0.26458332;fill:#fdfdff;fill-opacity:0.99215686"
         id="path5108" />
      <path
         d="m 45.442778,106.279 q 0,0.93017 -0.285254,1.78594 -0.285254,0.85576 -0.806153,1.48828 -0.539502,0.65732 -1.246435,1.02939 -0.706934,0.36587 -1.649512,0.36587 -1.234033,0 -1.928564,-0.70073 -0.68833,-0.70694 -0.68833,-1.94717 0,-0.93018 0.279052,-1.77354 0.285254,-0.84335 0.818555,-1.50068 0.514697,-0.63252 1.258838,-1.01079 0.750342,-0.37827 1.637109,-0.37827 1.196826,0 1.90376,0.68213 0.706934,0.68213 0.706934,1.95957 z m -1.897559,2.61689 q 0.334863,-0.49609 0.508496,-1.14721 0.179834,-0.65113 0.179834,-1.37666 0,-0.86817 -0.415478,-1.31465 -0.415479,-0.44649 -1.172022,-0.44649 -0.601514,0 -1.079004,0.29146 -0.47749,0.28525 -0.824756,0.78755 -0.334863,0.48989 -0.514697,1.14721 -0.179834,0.65733 -0.179834,1.36426 0,0.85576 0.415479,1.31465 0.415478,0.45889 1.178222,0.45889 0.595313,0 1.079004,-0.28526 0.483692,-0.28525 0.824756,-0.79375 z"
         style="font-style:italic;font-variant:normal;font-weight:normal;font-stretch:normal;font-size:12.69999981px;font-family:sans-serif;-inkscape-font-specification:'sans-serif, Italic';font-variant-ligatures:normal;font-variant-caps:normal;font-variant-numeric:normal;font-feature-settings:normal;text-align:start;writing-mode:lr-tb;text-anchor:start;stroke-width:0.26458332;fill:#fdfdff;fill-opacity:0.99215686"
         id="path5110" />
      <path
         d="m 53.690336,103.82953 -1.599902,6.92671 h -1.165821 l 0.179834,-0.76894 q -0.663525,0.45268 -1.240234,0.70693 -0.570508,0.25425 -1.209228,0.25425 -0.892969,0 -1.395264,-0.44648 -0.502295,-0.45269 -0.502295,-1.31465 0,-0.21084 0.02481,-0.40928 0.03101,-0.19844 0.08061,-0.45269 l 1.035596,-4.49585 h 1.16582 l -0.911572,3.94395 q -0.05581,0.24185 -0.10542,0.5519 -0.04961,0.31006 -0.04961,0.4899 0,0.5333 0.266651,0.79995 0.272851,0.26665 0.923974,0.26665 0.458887,0 1.047998,-0.26665 0.595313,-0.26665 1.097608,-0.61392 l 1.190625,-5.17178 z"
         style="font-style:italic;font-variant:normal;font-weight:normal;font-stretch:normal;font-size:12.69999981px;font-family:sans-serif;-inkscape-font-specification:'sans-serif, Italic';font-variant-ligatures:normal;font-variant-caps:normal;font-variant-numeric:normal;font-feature-settings:normal;text-align:start;writing-mode:lr-tb;text-anchor:start;stroke-width:0.26458332;fill:#fdfdff;fill-opacity:0.99215686"
         id="path5112" />
      <path
         d="m 61.323978,105.41083 q 0,0.14883 -0.03101,0.40308 -0.0248,0.25425 -0.07441,0.44648 l -1.041796,4.49585 h -1.165821 l 0.911572,-3.94394 q 0.07441,-0.32866 0.111622,-0.57051 0.04341,-0.24805 0.04341,-0.48989 0,-0.5209 -0.260449,-0.78135 -0.254248,-0.26665 -0.923975,-0.26665 -0.471289,0 -1.041797,0.26045 -0.564307,0.26045 -1.103808,0.62012 l -1.196827,5.17177 h -1.16582 l 1.599902,-6.92671 h 1.165821 l -0.179834,0.76895 q 0.663525,-0.46509 1.240234,-0.71313 0.58291,-0.24805 1.196826,-0.24805 0.905371,0 1.407666,0.45889 0.508496,0.45268 0.508496,1.31464 z"
         style="font-style:italic;font-variant:normal;font-weight:normal;font-stretch:normal;font-size:12.69999981px;font-family:sans-serif;-inkscape-font-specification:'sans-serif, Italic';font-variant-ligatures:normal;font-variant-caps:normal;font-variant-numeric:normal;font-feature-settings:normal;text-align:start;writing-mode:lr-tb;text-anchor:start;stroke-width:0.26458332;fill:#fdfdff;fill-opacity:0.99215686"
         id="path5114" />
      <path
         d="m 70.272269,101.10722 -2.232422,9.64902 h -1.16582 l 0.167431,-0.72553 q -0.787548,0.5395 -1.27124,0.72553 -0.47749,0.19224 -1.041797,0.19224 -0.979785,0 -1.556494,-0.62012 -0.570508,-0.62011 -0.570508,-1.80454 0,-0.99839 0.310059,-1.88515 0.310059,-0.89297 0.843359,-1.5627 0.5271,-0.66352 1.246436,-1.048 0.719336,-0.39067 1.525488,-0.39067 0.551904,0 1.016992,0.11782 0.465088,0.11782 0.868164,0.35347 l 0.694532,-3.00137 z m -2.083594,3.96875 q -0.415478,-0.21704 -0.818554,-0.31626 -0.396875,-0.10542 -0.849561,-0.10542 -0.644922,0 -1.153418,0.31006 -0.502295,0.31006 -0.861963,0.84956 -0.328662,0.48989 -0.508496,1.17822 -0.173633,0.68833 -0.173633,1.33325 0,0.75655 0.322461,1.15962 0.328662,0.39688 1.060401,0.39688 0.520898,0 1.0604,-0.26045 0.545703,-0.26045 1.00459,-0.57051 z"
         style="font-style:italic;font-variant:normal;font-weight:normal;font-stretch:normal;font-size:12.69999981px;font-family:sans-serif;-inkscape-font-specification:'sans-serif, Italic';font-variant-ligatures:normal;font-variant-caps:normal;font-variant-numeric:normal;font-feature-settings:normal;text-align:start;writing-mode:lr-tb;text-anchor:start;stroke-width:0.26458332;fill:#fdfdff;fill-opacity:0.99215686"
         id="path5116" />
      <path
         d="m 75.940142,106.53945 q 0.03101,-0.17984 0.04341,-0.30386 0.0124,-0.12402 0.0124,-0.27285 0,-0.66353 -0.365869,-1.0356 -0.359668,-0.37207 -1.159619,-0.37207 -0.880567,0 -1.562695,0.54571 -0.682129,0.5457 -0.923975,1.43867 z m -2.331641,4.37802 q -1.438672,0 -2.257227,-0.67592 -0.818554,-0.67593 -0.818554,-1.97818 0,-1.90376 1.203027,-3.26181 1.203027,-1.36426 2.976563,-1.36426 1.178222,0 1.804541,0.58911 0.626318,0.58291 0.626318,1.64331 0,0.18604 -0.05581,0.58911 -0.04961,0.40308 -0.167431,0.93638 h -5.103565 q -0.03721,0.17983 -0.05581,0.35347 -0.0124,0.17363 -0.0124,0.32246 0,0.87436 0.533301,1.37666 0.533301,0.49609 1.513086,0.49609 0.682129,0 1.401465,-0.26665 0.725537,-0.26665 1.21543,-0.60151 h 0.06821 l -0.254249,1.25883 q -0.310058,0.11163 -0.558105,0.20464 -0.248047,0.093 -0.632519,0.18604 -0.384473,0.093 -0.682129,0.14262 -0.297657,0.0496 -0.744141,0.0496 z"
         style="font-style:italic;font-variant:normal;font-weight:normal;font-stretch:normal;font-size:12.69999981px;font-family:sans-serif;-inkscape-font-specification:'sans-serif, Italic';font-variant-ligatures:normal;font-variant-caps:normal;font-variant-numeric:normal;font-feature-settings:normal;text-align:start;writing-mode:lr-tb;text-anchor:start;stroke-width:0.26458332;fill:#fdfdff;fill-opacity:0.99215686"
         id="path5118" />
      <path
         d="m 83.493169,105.05737 h -0.06201 q -0.248047,-0.062 -0.465088,-0.0868 -0.21084,-0.031 -0.514697,-0.031 -0.58291,0 -1.159619,0.26666 -0.570508,0.26044 -1.097607,0.63251 l -1.116211,4.91753 h -1.178223 l 1.581299,-6.92671 h 1.178222 l -0.235644,1.0232 q 0.824756,-0.57671 1.395264,-0.79995 0.576709,-0.22325 1.103808,-0.22325 0.303858,0 0.440283,0.0186 0.136426,0.0124 0.396875,0.0558 z"
         style="font-style:italic;font-variant:normal;font-weight:normal;font-stretch:normal;font-size:12.69999981px;font-family:sans-serif;-inkscape-font-specification:'sans-serif, Italic';font-variant-ligatures:normal;font-variant-caps:normal;font-variant-numeric:normal;font-feature-settings:normal;text-align:start;writing-mode:lr-tb;text-anchor:start;stroke-width:0.26458332;fill:#fdfdff;fill-opacity:0.99215686"
         id="path5120" />
      <path
         d="m 96.360598,110.75624 h -1.451074 l -1.128613,-1.37046 q -0.824756,0.84957 -1.618506,1.20923 -0.787549,0.35347 -1.624707,0.35347 -1.122412,0 -1.835547,-0.61392 -0.706933,-0.62011 -0.706933,-1.6061 0,-0.64492 0.217041,-1.14102 0.217041,-0.50229 0.58291,-0.91777 0.341064,-0.38447 0.787548,-0.67593 0.452686,-0.29145 0.868165,-0.49609 -0.403077,-0.34106 -0.688331,-0.75654 -0.279052,-0.41548 -0.279052,-0.91158 0,-0.45888 0.173633,-0.87436 0.179834,-0.42168 0.576709,-0.81235 0.365869,-0.35347 0.930175,-0.58291 0.570508,-0.22945 1.283643,-0.22945 0.973584,0 1.562695,0.48369 0.589111,0.47749 0.589111,1.24644 0,0.25425 -0.105419,0.62632 -0.09922,0.37207 -0.359668,0.71313 -0.285254,0.37207 -0.768946,0.69453 -0.483691,0.31626 -1.289843,0.5333 l 1.903759,2.27583 q 0.31626,-0.51469 0.514698,-1.25263 0.198437,-0.73794 0.341064,-1.53169 h 1.246436 l -0.124024,0.59531 q -0.148828,0.71314 -0.508496,1.43247 -0.353467,0.71934 -0.911572,1.41387 z m -3.367236,-6.49262 q 0.173633,-0.25425 0.248047,-0.54571 0.08061,-0.29145 0.08061,-0.60771 0,-0.48369 -0.328662,-0.76275 -0.322461,-0.28525 -0.756543,-0.28525 -0.663525,0 -1.085205,0.47129 -0.42168,0.46509 -0.42168,1.11621 0,0.34727 0.198438,0.69453 0.198437,0.34727 0.713135,0.77515 0.508496,-0.14263 0.830957,-0.35347 0.328662,-0.21704 0.520898,-0.50229 z m 0.31626,4.56406 -2.368848,-2.87734 q -0.167432,0.0806 -0.483691,0.30385 -0.310059,0.21704 -0.520899,0.44649 -0.248047,0.27285 -0.421679,0.68833 -0.173633,0.40927 -0.173633,0.92397 0,0.76275 0.434082,1.21543 0.434082,0.45269 1.252637,0.45269 0.595312,0 1.178222,-0.27906 0.58291,-0.28525 1.103809,-0.87436 z"
         style="font-style:italic;font-variant:normal;font-weight:normal;font-stretch:normal;font-size:12.69999981px;font-family:sans-serif;-inkscape-font-specification:'sans-serif, Italic';font-variant-ligatures:normal;font-variant-caps:normal;font-variant-numeric:normal;font-feature-settings:normal;text-align:start;writing-mode:lr-tb;text-anchor:start;stroke-width:0.26458332;fill:#fdfdff;fill-opacity:0.99215686"
         id="path5122" />
      <path
         d="m 110.56129,105.06357 q 0,1.51308 -0.76895,2.86494 -0.76894,1.35185 -2.1022,2.08979 -0.81855,0.44029 -1.67431,0.58912 -0.85576,0.14882 -1.94097,0.14882 h -2.49287 l 2.1332,-9.23354 h 2.14561 q 1.00459,0 1.82934,0.14263 0.83096,0.13642 1.51929,0.59531 0.65733,0.44028 1.00459,1.15342 0.34727,0.70693 0.34727,1.64951 z m -1.29605,0.10542 q 0,-0.70694 -0.25425,-1.21543 -0.24804,-0.5147 -0.75654,-0.85576 -0.50229,-0.33487 -1.0728,-0.44649 -0.57051,-0.11782 -1.44488,-0.11782 h -1.02319 l -1.67431,7.21196 h 1.28364 q 0.88677,0 1.5813,-0.14262 0.70073,-0.14883 1.32085,-0.5023 0.99838,-0.57051 1.51928,-1.64331 0.5209,-1.079 0.5209,-2.28823 z"
         style="font-style:italic;font-variant:normal;font-weight:normal;font-stretch:normal;font-size:12.69999981px;font-family:sans-serif;-inkscape-font-specification:'sans-serif, Italic';font-variant-ligatures:normal;font-variant-caps:normal;font-variant-numeric:normal;font-feature-settings:normal;text-align:start;writing-mode:lr-tb;text-anchor:start;stroke-width:0.26458332;fill:#fdfdff;fill-opacity:0.99215686"
         id="path5124" />
      <path
         d="m 116.81827,106.53945 q 0.031,-0.17984 0.0434,-0.30386 0.0124,-0.12402 0.0124,-0.27285 0,-0.66353 -0.36587,-1.0356 -0.35967,-0.37207 -1.15962,-0.37207 -0.88057,0 -1.5627,0.54571 -0.68213,0.5457 -0.92397,1.43867 z m -2.33164,4.37802 q -1.43868,0 -2.25723,-0.67592 -0.81856,-0.67593 -0.81856,-1.97818 0,-1.90376 1.20303,-3.26181 1.20303,-1.36426 2.97656,-1.36426 1.17823,0 1.80454,0.58911 0.62632,0.58291 0.62632,1.64331 0,0.18604 -0.0558,0.58911 -0.0496,0.40308 -0.16743,0.93638 h -5.10356 q -0.0372,0.17983 -0.0558,0.35347 -0.0124,0.17363 -0.0124,0.32246 0,0.87436 0.5333,1.37666 0.53331,0.49609 1.51309,0.49609 0.68213,0 1.40147,-0.26665 0.72553,-0.26665 1.21542,-0.60151 h 0.0682 l -0.25425,1.25883 q -0.31006,0.11163 -0.55811,0.20464 -0.24804,0.093 -0.63252,0.18604 -0.38447,0.093 -0.68212,0.14262 -0.29766,0.0496 -0.74414,0.0496 z"
         style="font-style:italic;font-variant:normal;font-weight:normal;font-stretch:normal;font-size:12.69999981px;font-family:sans-serif;-inkscape-font-specification:'sans-serif, Italic';font-variant-ligatures:normal;font-variant-caps:normal;font-variant-numeric:normal;font-feature-settings:normal;text-align:start;writing-mode:lr-tb;text-anchor:start;stroke-width:0.26458332;fill:#fdfdff;fill-opacity:0.99215686"
         id="path5126" />
      <path
         d="m 126.28125,103.82953 -4.40283,6.92671 h -1.15962 l -1.18442,-6.92671 h 1.19062 l 0.87437,5.51285 3.39824,-5.51285 z"
         style="font-style:italic;font-variant:normal;font-weight:normal;font-stretch:normal;font-size:12.69999981px;font-family:sans-serif;-inkscape-font-specification:'sans-serif, Italic';font-variant-ligatures:normal;font-variant-caps:normal;font-variant-numeric:normal;font-feature-settings:normal;text-align:start;writing-mode:lr-tb;text-anchor:start;stroke-width:0.26458332;fill:#fdfdff;fill-opacity:0.99215686"
         id="path5128" />
      <path
         d="m 131.89951,106.53945 q 0.031,-0.17984 0.0434,-0.30386 0.0124,-0.12402 0.0124,-0.27285 0,-0.66353 -0.36587,-1.0356 -0.35967,-0.37207 -1.15962,-0.37207 -0.88056,0 -1.56269,0.54571 -0.68213,0.5457 -0.92398,1.43867 z m -2.33164,4.37802 q -1.43867,0 -2.25723,-0.67592 -0.81855,-0.67593 -0.81855,-1.97818 0,-1.90376 1.20303,-3.26181 1.20302,-1.36426 2.97656,-1.36426 1.17822,0 1.80454,0.58911 0.62632,0.58291 0.62632,1.64331 0,0.18604 -0.0558,0.58911 -0.0496,0.40308 -0.16743,0.93638 h -5.10357 q -0.0372,0.17983 -0.0558,0.35347 -0.0124,0.17363 -0.0124,0.32246 0,0.87436 0.5333,1.37666 0.5333,0.49609 1.51309,0.49609 0.68212,0 1.40146,-0.26665 0.72554,-0.26665 1.21543,-0.60151 h 0.0682 l -0.25424,1.25883 q -0.31006,0.11163 -0.55811,0.20464 -0.24805,0.093 -0.63252,0.18604 -0.38447,0.093 -0.68213,0.14262 -0.29765,0.0496 -0.74414,0.0496 z"
         style="font-style:italic;font-variant:normal;font-weight:normal;font-stretch:normal;font-size:12.69999981px;font-family:sans-serif;-inkscape-font-specification:'sans-serif, Italic';font-variant-ligatures:normal;font-variant-caps:normal;font-variant-numeric:normal;font-feature-settings:normal;text-align:start;writing-mode:lr-tb;text-anchor:start;stroke-width:0.26458332;fill:#fdfdff;fill-opacity:0.99215686"
         id="path5130" />
      <path
         d="m 137.26973,101.10722 -2.23243,9.64902 h -1.16582 l 2.23243,-9.64902 z"
         style="font-style:italic;font-variant:normal;font-weight:normal;font-stretch:normal;font-size:12.69999981px;font-family:sans-serif;-inkscape-font-specification:'sans-serif, Italic';font-variant-ligatures:normal;font-variant-caps:normal;font-variant-numeric:normal;font-feature-settings:normal;text-align:start;writing-mode:lr-tb;text-anchor:start;stroke-width:0.26458332;fill:#fdfdff;fill-opacity:0.99215686"
         id="path5132" />
      <path
         d="m 144.16544,106.279 q 0,0.93017 -0.28526,1.78594 -0.28525,0.85576 -0.80615,1.48828 -0.5395,0.65732 -1.24644,1.02939 -0.70693,0.36587 -1.64951,0.36587 -1.23403,0 -1.92856,-0.70073 -0.68833,-0.70694 -0.68833,-1.94717 0,-0.93018 0.27905,-1.77354 0.28525,-0.84335 0.81855,-1.50068 0.5147,-0.63252 1.25884,-1.01079 0.75034,-0.37827 1.63711,-0.37827 1.19683,0 1.90376,0.68213 0.70694,0.68213 0.70694,1.95957 z m -1.89756,2.61689 q 0.33486,-0.49609 0.50849,-1.14721 0.17984,-0.65113 0.17984,-1.37666 0,-0.86817 -0.41548,-1.31465 -0.41548,-0.44649 -1.17202,-0.44649 -0.60152,0 -1.07901,0.29146 -0.47749,0.28525 -0.82475,0.78755 -0.33487,0.48989 -0.5147,1.14721 -0.17983,0.65733 -0.17983,1.36426 0,0.85576 0.41547,1.31465 0.41548,0.45889 1.17823,0.45889 0.59531,0 1.079,-0.28526 0.48369,-0.28525 0.82476,-0.79375 z"
         style="font-style:italic;font-variant:normal;font-weight:normal;font-stretch:normal;font-size:12.69999981px;font-family:sans-serif;-inkscape-font-specification:'sans-serif, Italic';font-variant-ligatures:normal;font-variant-caps:normal;font-variant-numeric:normal;font-feature-settings:normal;text-align:start;writing-mode:lr-tb;text-anchor:start;stroke-width:0.26458332;fill:#fdfdff;fill-opacity:0.99215686"
         id="path5134" />
      <path
         d="m 152.10913,106.01855 q 0,1.02939 -0.32246,1.93476 -0.31626,0.90538 -0.84336,1.53789 -0.5333,0.65113 -1.24023,1.0294 -0.70693,0.37207 -1.50688,0.37207 -0.55811,0 -1.0294,-0.13023 -0.46509,-0.12402 -0.84956,-0.36586 l -0.66973,2.91455 h -1.16582 l 2.18902,-9.4816 h 1.16582 l -0.16743,0.72554 q 0.5767,-0.40307 1.13481,-0.65732 0.55811,-0.26045 1.23403,-0.26045 1.01079,0 1.53789,0.62632 0.5333,0.62632 0.5333,1.75493 z m -1.22163,0.22324 q 0,-0.73794 -0.32246,-1.13481 -0.32246,-0.40308 -1.02939,-0.40308 -0.5147,0 -1.0666,0.25425 -0.55191,0.25425 -1.0294,0.57671 l -0.90537,3.92534 q 0.40308,0.21704 0.76895,0.32246 0.36587,0.10542 0.88676,0.10542 0.63873,0 1.14722,-0.31006 0.5147,-0.31006 0.84956,-0.80615 0.35347,-0.5209 0.5271,-1.15962 0.17363,-0.63872 0.17363,-1.37046 z"
         style="font-style:italic;font-variant:normal;font-weight:normal;font-stretch:normal;font-size:12.69999981px;font-family:sans-serif;-inkscape-font-specification:'sans-serif, Italic';font-variant-ligatures:normal;font-variant-caps:normal;font-variant-numeric:normal;font-feature-settings:normal;text-align:start;writing-mode:lr-tb;text-anchor:start;stroke-width:0.26458332;fill:#fdfdff;fill-opacity:0.99215686"
         id="path5136" />
      <path
         d="m 158.58936,106.53945 q 0.031,-0.17984 0.0434,-0.30386 0.0124,-0.12402 0.0124,-0.27285 0,-0.66353 -0.36587,-1.0356 -0.35967,-0.37207 -1.15962,-0.37207 -0.88056,0 -1.56269,0.54571 -0.68213,0.5457 -0.92398,1.43867 z m -2.33164,4.37802 q -1.43867,0 -2.25723,-0.67592 -0.81855,-0.67593 -0.81855,-1.97818 0,-1.90376 1.20303,-3.26181 1.20302,-1.36426 2.97656,-1.36426 1.17822,0 1.80454,0.58911 0.62632,0.58291 0.62632,1.64331 0,0.18604 -0.0558,0.58911 -0.0496,0.40308 -0.16743,0.93638 h -5.10357 q -0.0372,0.17983 -0.0558,0.35347 -0.0124,0.17363 -0.0124,0.32246 0,0.87436 0.5333,1.37666 0.5333,0.49609 1.51309,0.49609 0.68212,0 1.40146,-0.26665 0.72554,-0.26665 1.21543,-0.60151 h 0.0682 l -0.25424,1.25883 q -0.31006,0.11163 -0.55811,0.20464 -0.24805,0.093 -0.63252,0.18604 -0.38447,0.093 -0.68213,0.14262 -0.29766,0.0496 -0.74414,0.0496 z"
         style="font-style:italic;font-variant:normal;font-weight:normal;font-stretch:normal;font-size:12.69999981px;font-family:sans-serif;-inkscape-font-specification:'sans-serif, Italic';font-variant-ligatures:normal;font-variant-caps:normal;font-variant-numeric:normal;font-feature-settings:normal;text-align:start;writing-mode:lr-tb;text-anchor:start;stroke-width:0.26458332;fill:#fdfdff;fill-opacity:0.99215686"
         id="path5138" />
      <path
         d="m 166.14238,105.05737 h -0.062 q -0.24805,-0.062 -0.46509,-0.0868 -0.21084,-0.031 -0.5147,-0.031 -0.58291,0 -1.15962,0.26666 -0.5705,0.26044 -1.0976,0.63251 l -1.11621,4.91753 h -1.17823 l 1.5813,-6.92671 h 1.17823 l -0.23565,1.0232 q 0.82476,-0.57671 1.39526,-0.79995 0.57671,-0.22325 1.10381,-0.22325 0.30386,0 0.44029,0.0186 0.13642,0.0124 0.39687,0.0558 z"
         style="font-style:italic;font-variant:normal;font-weight:normal;font-stretch:normal;font-size:12.69999981px;font-family:sans-serif;-inkscape-font-specification:'sans-serif, Italic';font-variant-ligatures:normal;font-variant-caps:normal;font-variant-numeric:normal;font-feature-settings:normal;text-align:start;writing-mode:lr-tb;text-anchor:start;stroke-width:0.26458332;fill:#fdfdff;fill-opacity:0.99215686"
         id="path5140" />
      <path
         d="m 39.2106,132.15705 -1.503784,5.77226 h -0.89917 l -1.483114,-4.44934 -1.472778,4.44934 h -0.894002 l -1.519288,-5.77226 h 1.012859 l 1.059366,4.47001 1.441773,-4.47001 h 0.800984 l 1.477946,4.47001 1.002523,-4.47001 z"
         style="stroke-width:0.26458332;fill:#fdfdff;fill-opacity:0.99215686"
         id="path5142" />
      <path
         d="m 47.871569,132.15705 -1.503784,5.77226 h -0.89917 l -1.483113,-4.44934 -1.472778,4.44934 h -0.894003 l -1.519287,-5.77226 h 1.012858 l 1.059367,4.47001 1.441772,-4.47001 h 0.800985 l 1.477946,4.47001 1.002523,-4.47001 z"
         style="stroke-width:0.26458332;fill:#fdfdff;fill-opacity:0.99215686"
         id="path5144" />
      <path
         d="m 56.532539,132.15705 -1.503784,5.77226 h -0.89917 l -1.483113,-4.44934 -1.472779,4.44934 h -0.894002 l -1.519287,-5.77226 h 1.012858 l 1.059367,4.47001 1.441772,-4.47001 h 0.800985 l 1.477946,4.47001 1.002523,-4.47001 z"
         style="stroke-width:0.26458332;fill:#fdfdff;fill-opacity:0.99215686"
         id="path5146" />
      <path
         d="m 59.168037,137.92931 h -1.235066 v -1.47278 h 1.235066 z"
         style="stroke-width:0.26458332;fill:#fdfdff;fill-opacity:0.99215686"
         id="path5148" />
      <path
         d="m 65.550077,136.26533 q 0,0.79065 -0.656291,1.29708 -0.651123,0.50643 -1.782837,0.50643 -0.640788,0 -1.178223,-0.14986 -0.532267,-0.15503 -0.894002,-0.3359 v -1.09037 h 0.05168 q 0.45992,0.34623 1.023193,0.55293 0.563273,0.20154 1.080037,0.20154 0.640788,0 1.002523,-0.2067 0.361735,-0.20671 0.361735,-0.65113 0,-0.34106 -0.19637,-0.51676 -0.196371,-0.1757 -0.754476,-0.29972 -0.206706,-0.0465 -0.542603,-0.10853 -0.330729,-0.062 -0.604614,-0.13435 -0.759643,-0.20154 -1.080037,-0.58912 -0.315227,-0.39274 -0.315227,-0.96118 0,-0.35656 0.144694,-0.67179 0.149862,-0.31523 0.449585,-0.56327 0.289388,-0.24288 0.733806,-0.38241 0.449585,-0.14469 1.002522,-0.14469 0.516765,0 1.043864,0.12919 0.532268,0.12402 0.883667,0.30489 v 1.0387 h -0.05168 q -0.37207,-0.27389 -0.904338,-0.45993 -0.532267,-0.1912 -1.043864,-0.1912 -0.532267,0 -0.899169,0.20671 -0.366903,0.20154 -0.366903,0.60461 0,0.35657 0.222209,0.53744 0.217041,0.18086 0.702799,0.29455 0.268717,0.062 0.599447,0.12403 0.335896,0.062 0.558105,0.11368 0.676961,0.15503 1.043864,0.53227 0.366903,0.38241 0.366903,1.01286 z"
         style="stroke-width:0.26458332;fill:#fdfdff;fill-opacity:0.99215686"
         id="path5150" />
      <path
         d="m 69.942572,137.87763 q -0.273886,0.0724 -0.599447,0.11886 -0.320394,0.0465 -0.573608,0.0465 -0.883667,0 -1.343588,-0.47542 -0.45992,-0.47543 -0.45992,-1.52446 v -3.06958 h -0.656291 v -0.81649 h 0.656291 v -1.65881 h 0.971517 v 1.65881 h 2.005046 v 0.81649 h -2.005046 v 2.63033 q 0,0.45475 0.02067,0.71314 0.02067,0.25321 0.144694,0.47542 0.113688,0.2067 0.310058,0.30489 0.201538,0.093 0.609782,0.093 0.237712,0 0.496094,-0.0672 0.258382,-0.0724 0.37207,-0.11886 h 0.05168 z"
         style="stroke-width:0.26458332;fill:#fdfdff;fill-opacity:0.99215686"
         id="path5152" />
      <path
         d="m 75.952542,135.14395 h -4.25297 q 0,0.53227 0.160196,0.93018 0.160197,0.39274 0.43925,0.64595 0.268718,0.24805 0.63562,0.37207 0.372071,0.12403 0.816488,0.12403 0.589111,0 1.18339,-0.23255 0.599447,-0.23771 0.852661,-0.46509 h 0.05168 v 1.05937 q -0.490926,0.20671 -1.002523,0.34623 -0.511597,0.13953 -1.07487,0.13953 -1.436605,0 -2.242757,-0.77515 -0.806152,-0.78031 -0.806152,-2.21175 0,-1.41593 0.769979,-2.24792 0.775146,-0.83199 2.036051,-0.83199 1.167887,0 1.79834,0.68213 0.63562,0.68212 0.63562,1.93786 z m -0.945679,-0.74414 q -0.0052,-0.76481 -0.387573,-1.18339 -0.377238,-0.41858 -1.152385,-0.41858 -0.780314,0 -1.245401,0.45992 -0.459921,0.45992 -0.521932,1.14205 z"
         style="stroke-width:0.26458332;fill:#fdfdff;fill-opacity:0.99215686"
         id="path5154" />
      <path
         d="m 82.505112,134.97342 q 0,0.7028 -0.201538,1.28674 -0.201538,0.57878 -0.568441,0.98185 -0.341064,0.38241 -0.806152,0.59428 -0.45992,0.20671 -0.976685,0.20671 -0.449584,0 -0.816487,-0.0982 -0.361735,-0.0982 -0.738973,-0.30489 v 2.41846 h -0.971517 v -7.90133 h 0.971517 v 0.60462 q 0.387573,-0.32556 0.868164,-0.54261 0.485758,-0.2222 1.033529,-0.2222 1.043863,0 1.622639,0.79065 0.583944,0.78548 0.583944,2.18591 z m -1.002523,0.0258 q 0,-1.04387 -0.356567,-1.56063 -0.356567,-0.51677 -1.09554,-0.51677 -0.418579,0 -0.842326,0.18087 -0.423747,0.18087 -0.81132,0.47543 v 3.27111 q 0.413411,0.18604 0.707967,0.25322 0.299723,0.0672 0.676961,0.0672 0.81132,0 1.266073,-0.54777 0.454752,-0.54777 0.454752,-1.62264 z"
         style="stroke-width:0.26458332;fill:#fdfdff;fill-opacity:0.99215686"
         id="path5156" />
      <path
         d="m 85.063097,131.1907 h -1.09554 v -1.00769 h 1.09554 z m -0.06201,6.73861 h -0.971517 v -5.77226 h 0.971517 z"
         style="stroke-width:0.26458332;fill:#fdfdff;fill-opacity:0.99215686"
         id="path5158" />
      <path
         d="m 91.884387,132.15705 -2.335775,5.77226 h -0.976684 l -2.320272,-5.77226 h 1.054199 l 1.788005,4.59404 1.772501,-4.59404 z"
         style="stroke-width:0.26458332;fill:#fdfdff;fill-opacity:0.99215686"
         id="path5160" />
      <path
         d="m 93.811918,137.92931 h -1.235067 v -1.47278 h 1.235067 z"
         style="stroke-width:0.26458332;fill:#fdfdff;fill-opacity:0.99215686"
         id="path5162" />
      <path
         d="m 100.33865,137.56758 q -0.485757,0.23254 -0.925007,0.36173 -0.434082,0.12919 -0.925008,0.12919 -0.625285,0 -1.147216,-0.18087 -0.521932,-0.18603 -0.894003,-0.5581 -0.377238,-0.37207 -0.583943,-0.94051 -0.206706,-0.56844 -0.206706,-1.32809 0,-1.41593 0.775146,-2.22208 0.780314,-0.80616 2.056722,-0.80616 0.496094,0 0.971517,0.13953 0.480591,0.13953 0.878498,0.34107 v 1.08003 h -0.0517 q -0.444422,-0.34623 -0.919845,-0.53226 -0.470256,-0.18604 -0.919841,-0.18604 -0.826823,0 -1.307414,0.55811 -0.475423,0.55293 -0.475423,1.6278 0,1.04387 0.465088,1.60714 0.470256,0.55811 1.317749,0.55811 0.294556,0 0.599447,-0.0775 0.304891,-0.0775 0.54777,-0.20154 0.211873,-0.10852 0.397908,-0.22737 0.186031,-0.12403 0.294561,-0.21188 h 0.0517 z"
         style="stroke-width:0.26458332;fill:#fdfdff;fill-opacity:0.99215686"
         id="path5164" />
      <path
         d="m 106.50882,135.04577 q 0,1.41076 -0.72347,2.22725 -0.72347,0.81649 -1.93787,0.81649 -1.22473,0 -1.9482,-0.81649 -0.7183,-0.81649 -0.7183,-2.22725 0,-1.41077 0.7183,-2.22726 0.72347,-0.82165 1.9482,-0.82165 1.2144,0 1.93787,0.82165 0.72347,0.81649 0.72347,2.22726 z m -1.00253,0 q 0,-1.12138 -0.43924,-1.66399 -0.43925,-0.54777 -1.21957,-0.54777 -0.79065,0 -1.2299,0.54777 -0.43408,0.54261 -0.43408,1.66399 0,1.0852 0.43925,1.64847 0.43925,0.55811 1.22473,0.55811 0.77515,0 1.2144,-0.55294 0.44441,-0.5581 0.44441,-1.65364 z"
         style="stroke-width:0.26458332;fill:#fdfdff;fill-opacity:0.99215686"
         id="path5166" />
      <path
         d="m 116.44102,137.92931 h -0.97151 v -3.28662 q 0,-0.37207 -0.0362,-0.7183 -0.031,-0.34623 -0.13952,-0.55294 -0.11886,-0.22221 -0.34107,-0.3359 -0.22221,-0.11369 -0.64079,-0.11369 -0.40824,0 -0.81648,0.20671 -0.40825,0.20154 -0.81649,0.51676 0.0155,0.11886 0.0258,0.27906 0.0103,0.15503 0.0103,0.31006 v 3.69486 h -0.97151 v -3.28662 q 0,-0.38241 -0.0362,-0.72347 -0.031,-0.34623 -0.13952,-0.55294 -0.11886,-0.22221 -0.34107,-0.33073 -0.22221,-0.11369 -0.64079,-0.11369 -0.39791,0 -0.80098,0.19637 -0.39791,0.19638 -0.79582,0.50127 v 4.30981 h -0.97152 v -5.77226 h 0.97152 v 0.64079 q 0.45475,-0.37724 0.90434,-0.58911 0.45475,-0.21187 0.96635,-0.21187 0.58911,0 0.99735,0.24804 0.41341,0.24805 0.61495,0.6873 0.58911,-0.49609 1.07487,-0.71314 0.48576,-0.2222 1.0387,-0.2222 0.95085,0 1.40043,0.57877 0.45475,0.57361 0.45475,1.60714 z"
         style="stroke-width:0.26458332;fill:#fdfdff;fill-opacity:0.99215686"
         id="path5168" />
      <path
         d="m 36.218534,150.79674 q -0.485758,0.23255 -0.925008,0.36174 -0.434082,0.12919 -0.925008,0.12919 -0.625285,0 -1.147217,-0.18087 -0.521932,-0.18603 -0.894002,-0.55811 -0.377238,-0.37207 -0.583944,-0.94051 -0.206705,-0.56844 -0.206705,-1.32808 0,-1.41593 0.775146,-2.22209 0.780314,-0.80615 2.056722,-0.80615 0.496094,0 0.971517,0.13953 0.480591,0.13952 0.878499,0.34106 v 1.08004 h -0.05168 q -0.444417,-0.34623 -0.919841,-0.53227 -0.470255,-0.18603 -0.91984,-0.18603 -0.826823,0 -1.307414,0.5581 -0.475423,0.55294 -0.475423,1.62781 0,1.04386 0.465088,1.60714 0.470255,0.5581 1.317749,0.5581 0.294556,0 0.599447,-0.0775 0.30489,-0.0775 0.54777,-0.20154 0.211873,-0.10852 0.397908,-0.22738 0.186035,-0.12402 0.294556,-0.21187 h 0.05168 z"
         style="stroke-width:0.26458332;fill:#fdfdff;fill-opacity:0.99215686"
         id="path5170" />
      <path
         d="m 42.3887,148.27493 q 0,1.41077 -0.72347,2.22726 -0.72347,0.81648 -1.937866,0.81648 -1.224731,0 -1.948201,-0.81648 -0.718303,-0.81649 -0.718303,-2.22726 0,-1.41076 0.718303,-2.22725 0.72347,-0.82166 1.948201,-0.82166 1.214396,0 1.937866,0.82166 0.72347,0.81649 0.72347,2.22725 z m -1.002522,0 q 0,-1.12138 -0.43925,-1.66398 -0.43925,-0.54777 -1.219564,-0.54777 -0.790649,0 -1.229899,0.54777 -0.434082,0.5426 -0.434082,1.66398 0,1.08521 0.43925,1.64848 0.439249,0.55811 1.224731,0.55811 0.775147,0 1.214396,-0.55294 0.444418,-0.55811 0.444418,-1.65365 z"
         style="stroke-width:0.26458332;fill:#fdfdff;fill-opacity:0.99215686"
         id="path5172" />
      <path
         d="m 48.724231,151.15848 h -0.971517 v -3.28662 q 0,-0.39791 -0.04651,-0.74414 -0.04651,-0.3514 -0.170532,-0.54777 -0.129191,-0.21705 -0.372071,-0.3204 -0.242879,-0.10852 -0.630452,-0.10852 -0.397909,0 -0.831991,0.19637 -0.434082,0.19637 -0.83199,0.50126 v 4.30982 h -0.971517 v -5.77226 h 0.971517 v 0.64079 q 0.454752,-0.37724 0.940511,-0.58911 0.485758,-0.21188 0.997355,-0.21188 0.935343,0 1.42627,0.56328 0.490926,0.56327 0.490926,1.62264 z"
         style="stroke-width:0.26458332;fill:#fdfdff;fill-opacity:0.99215686"
         id="path5174" />
      <path
         d="m 53.59215,151.1068 q -0.273885,0.0724 -0.599447,0.11886 -0.320394,0.0465 -0.573608,0.0465 -0.883667,0 -1.343588,-0.47542 -0.45992,-0.47542 -0.45992,-1.52445 v -3.06958 h -0.65629 v -0.81649 h 0.65629 v -1.65881 h 0.971517 v 1.65881 h 2.005046 v 0.81649 h -2.005046 v 2.63033 q 0,0.45475 0.02067,0.71313 0.02067,0.25322 0.144694,0.47543 0.113688,0.2067 0.310058,0.30489 0.201538,0.093 0.609782,0.093 0.237712,0 0.496094,-0.0672 0.258382,-0.0723 0.37207,-0.11885 h 0.05168 z"
         style="stroke-width:0.26458332;fill:#fdfdff;fill-opacity:0.99215686"
         id="path5176" />
      <path
         d="m 59.255888,151.15848 h -0.966349 v -0.61495 q -0.129192,0.0879 -0.3514,0.24804 -0.217041,0.15503 -0.423747,0.24805 -0.242879,0.11886 -0.558105,0.19637 -0.315227,0.0827 -0.738973,0.0827 -0.780314,0 -1.322917,-0.51676 -0.542602,-0.51676 -0.542602,-1.31775 0,-0.65629 0.279052,-1.05937 0.284221,-0.40824 0.806153,-0.64078 0.527099,-0.23255 1.266072,-0.31523 0.738973,-0.0827 1.586467,-0.12402 v -0.14987 q 0,-0.33072 -0.118856,-0.54777 -0.113688,-0.21704 -0.330729,-0.34106 -0.206706,-0.11886 -0.496094,-0.1602 -0.289388,-0.0413 -0.604614,-0.0413 -0.382406,0 -0.852661,0.10335 -0.470256,0.0982 -0.971517,0.28939 h -0.05168 v -0.98702 q 0.284221,-0.0775 0.821655,-0.17053 0.537435,-0.093 1.059367,-0.093 0.609782,0 1.059367,0.10336 0.454753,0.0982 0.785482,0.34106 0.325561,0.23771 0.496094,0.61495 0.170532,0.37724 0.170532,0.93534 z m -0.966349,-1.42111 v -1.60713 q -0.444418,0.0258 -1.049032,0.0775 -0.599447,0.0517 -0.950846,0.14986 -0.418579,0.11886 -0.676962,0.37207 -0.258382,0.24805 -0.258382,0.6873 0,0.49609 0.299724,0.74931 0.299723,0.24805 0.914672,0.24805 0.511597,0 0.935344,-0.19637 0.423747,-0.20154 0.785482,-0.4806 z"
         style="stroke-width:0.26458332;fill:#fdfdff;fill-opacity:0.99215686"
         id="path5178" />
      <path
         d="m 65.405382,150.79674 q -0.485758,0.23255 -0.925008,0.36174 -0.434082,0.12919 -0.925008,0.12919 -0.625285,0 -1.147217,-0.18087 -0.521932,-0.18603 -0.894002,-0.55811 -0.377238,-0.37207 -0.583944,-0.94051 -0.206706,-0.56844 -0.206706,-1.32808 0,-1.41593 0.775147,-2.22209 0.780314,-0.80615 2.056722,-0.80615 0.496094,0 0.971517,0.13953 0.48059,0.13952 0.878499,0.34106 v 1.08004 h -0.05168 q -0.444418,-0.34623 -0.919841,-0.53227 -0.470255,-0.18603 -0.91984,-0.18603 -0.826823,0 -1.307414,0.5581 -0.475423,0.55294 -0.475423,1.62781 0,1.04386 0.465088,1.60714 0.470255,0.5581 1.317749,0.5581 0.294555,0 0.599446,-0.0775 0.304891,-0.0775 0.54777,-0.20154 0.211874,-0.10852 0.397909,-0.22738 0.186035,-0.12402 0.294556,-0.21187 h 0.05168 z"
         style="stroke-width:0.26458332;fill:#fdfdff;fill-opacity:0.99215686"
         id="path5180" />
      <path
         d="m 69.653185,151.1068 q -0.273885,0.0724 -0.599447,0.11886 -0.320394,0.0465 -0.573608,0.0465 -0.883667,0 -1.343587,-0.47542 -0.459921,-0.47542 -0.459921,-1.52445 v -3.06958 h -0.65629 v -0.81649 h 0.65629 v -1.65881 h 0.971517 v 1.65881 h 2.005046 v 0.81649 h -2.005046 v 2.63033 q 0,0.45475 0.02067,0.71313 0.02067,0.25322 0.144694,0.47543 0.113688,0.2067 0.310058,0.30489 0.201539,0.093 0.609782,0.093 0.237712,0 0.496094,-0.0672 0.258382,-0.0723 0.37207,-0.11885 h 0.05168 z"
         style="stroke-width:0.26458332;fill:#fdfdff;fill-opacity:0.99215686"
         id="path5182" />
      <path
         d="m 79.538887,147.73233 q 0,0.7183 -0.211873,1.3901 -0.206706,0.67179 -0.594279,1.22473 h -2.273763 l -0.139526,-0.59945 q -0.382406,0.31006 -0.733806,0.47542 -0.351399,0.16537 -0.806152,0.16537 -0.868164,0 -1.390096,-0.65629 -0.516764,-0.65629 -0.516764,-1.83452 0,-1.17305 0.63562,-1.87068 0.63562,-0.69763 1.519287,-0.69763 0.377238,0 0.666626,0.0879 0.289388,0.0827 0.625285,0.25321 v -0.24805 h 0.821655 v 4.35116 h 1.255737 q 0.217041,-0.38757 0.325562,-0.96635 0.113688,-0.58394 0.113688,-1.04386 0,-0.8475 -0.237712,-1.53996 -0.232544,-0.69247 -0.687296,-1.18856 -0.454753,-0.49609 -1.126546,-0.75964 -0.671794,-0.26872 -1.524455,-0.26872 -0.826823,0 -1.51412,0.29972 -0.682128,0.29973 -1.173054,0.80615 -0.496094,0.50643 -0.780315,1.2144 -0.279052,0.7028 -0.279052,1.49862 0,0.85266 0.268717,1.56063 0.268718,0.70279 0.759644,1.20406 0.511596,0.52193 1.198893,0.78548 0.687296,0.26872 1.498616,0.26872 0.444418,0 0.914673,-0.0568 0.475423,-0.0568 0.909505,-0.18087 v 0.73381 q -0.501261,0.10852 -0.935343,0.14469 -0.434082,0.0413 -0.894002,0.0413 -0.961182,0 -1.782837,-0.33073 -0.821655,-0.32556 -1.410767,-0.91467 -0.594279,-0.59428 -0.925008,-1.42627 -0.330729,-0.83199 -0.330729,-1.83968 0,-0.95601 0.346232,-1.77767 0.346232,-0.82682 0.945679,-1.43143 0.599446,-0.60462 1.421102,-0.95085 0.821655,-0.34623 1.756998,-0.34623 1.012858,0 1.808675,0.32039 0.795817,0.32039 1.343588,0.89917 0.54777,0.57878 0.837158,1.39526 0.294555,0.81132 0.294555,1.80868 z m -3.229777,1.31775 v -2.67684 q -0.325561,-0.14986 -0.583943,-0.21187 -0.258382,-0.0672 -0.552938,-0.0672 -0.666626,0 -1.043864,0.46508 -0.377238,0.46509 -0.377238,1.32292 0,0.84233 0.299723,1.27641 0.299724,0.42891 0.935344,0.42891 0.346232,0 0.692464,-0.16019 0.346232,-0.1602 0.630452,-0.37724 z"
         style="stroke-width:0.26458332;fill:#fdfdff;fill-opacity:0.99215686"
         id="path5184" />
      <path
         d="m 85.53852,149.4945 q 0,0.79065 -0.656291,1.29707 -0.651123,0.50643 -1.782837,0.50643 -0.640787,0 -1.178222,-0.14986 -0.532267,-0.15503 -0.894002,-0.3359 v -1.09037 h 0.05168 q 0.45992,0.34623 1.023193,0.55294 0.563273,0.20154 1.080038,0.20154 0.640788,0 1.002523,-0.20671 0.361735,-0.2067 0.361735,-0.65112 0,-0.34107 -0.196371,-0.51677 -0.19637,-0.1757 -0.754476,-0.29972 -0.206705,-0.0465 -0.542602,-0.10852 -0.330729,-0.062 -0.604615,-0.13436 -0.759643,-0.20154 -1.080037,-0.58911 -0.315226,-0.39274 -0.315226,-0.96118 0,-0.35657 0.144694,-0.67179 0.149861,-0.31523 0.449585,-0.56328 0.289388,-0.24288 0.733805,-0.3824 0.449585,-0.1447 1.002523,-0.1447 0.516764,0 1.043864,0.12919 0.532267,0.12403 0.883667,0.3049 v 1.03869 h -0.05168 q -0.37207,-0.27388 -0.904337,-0.45992 -0.532267,-0.1912 -1.043864,-0.1912 -0.532267,0 -0.89917,0.2067 -0.366903,0.20154 -0.366903,0.60462 0,0.35657 0.222209,0.53743 0.217041,0.18087 0.702799,0.29456 0.268718,0.062 0.599447,0.12402 0.335897,0.062 0.558105,0.11369 0.676962,0.15503 1.043864,0.53227 0.366903,0.3824 0.366903,1.01286 z"
         style="stroke-width:0.26458332;fill:#fdfdff;fill-opacity:0.99215686"
         id="path5186" />
      <path
         d="m 89.931017,151.1068 q -0.273885,0.0724 -0.599447,0.11886 -0.320394,0.0465 -0.573608,0.0465 -0.883667,0 -1.343587,-0.47542 -0.459921,-0.47542 -0.459921,-1.52445 v -3.06958 h -0.65629 v -0.81649 h 0.65629 v -1.65881 h 0.971517 v 1.65881 h 2.005046 v 0.81649 h -2.005046 v 2.63033 q 0,0.45475 0.02067,0.71313 0.02067,0.25322 0.144694,0.47543 0.113688,0.2067 0.310058,0.30489 0.201539,0.093 0.609782,0.093 0.237712,0 0.496094,-0.0672 0.258382,-0.0723 0.37207,-0.11885 h 0.05168 z"
         style="stroke-width:0.26458332;fill:#fdfdff;fill-opacity:0.99215686"
         id="path5188" />
      <path
         d="m 95.940987,148.37312 h -4.25297 q 0,0.53226 0.160197,0.93017 0.160197,0.39274 0.439249,0.64596 0.268718,0.24805 0.635621,0.37207 0.37207,0.12402 0.816487,0.12402 0.589111,0 1.18339,-0.23254 0.599447,-0.23771 0.852662,-0.46509 h 0.05168 v 1.05937 q -0.490926,0.2067 -1.002523,0.34623 -0.511596,0.13953 -1.07487,0.13953 -1.436604,0 -2.242757,-0.77515 -0.806152,-0.78032 -0.806152,-2.21175 0,-1.41594 0.769979,-2.24793 0.775146,-0.83199 2.036051,-0.83199 1.167888,0 1.79834,0.68213 0.63562,0.68213 0.63562,1.93787 z m -0.945679,-0.74414 q -0.0052,-0.76481 -0.387573,-1.18339 -0.377238,-0.41858 -1.152384,-0.41858 -0.780314,0 -1.245402,0.45992 -0.45992,0.45992 -0.521932,1.14205 z"
         style="stroke-width:0.26458332;fill:#fdfdff;fill-opacity:0.99215686"
         id="path5190" />
      <path
         d="m 102.49355,148.20258 q 0,0.7028 -0.20153,1.28675 -0.20154,0.57877 -0.56845,0.98185 -0.34106,0.38241 -0.80615,0.59428 -0.45992,0.2067 -0.976682,0.2067 -0.449585,0 -0.816488,-0.0982 -0.361735,-0.0982 -0.738973,-0.30489 v 2.41846 H 97.41376 v -7.90133 h 0.971517 v 0.60461 q 0.387574,-0.32556 0.868164,-0.5426 0.485759,-0.22221 1.033529,-0.22221 1.04386,0 1.62264,0.79065 0.58394,0.78548 0.58394,2.18591 z m -1.00252,0.0258 q 0,-1.04386 -0.35657,-1.56063 -0.35656,-0.51676 -1.09554,-0.51676 -0.418576,0 -0.842323,0.18087 -0.423746,0.18087 -0.81132,0.47542 v 3.27112 q 0.413412,0.18603 0.707967,0.25321 0.299724,0.0672 0.676962,0.0672 0.811324,0 1.266074,-0.54777 0.45475,-0.54777 0.45475,-1.62264 z"
         style="stroke-width:0.26458332;fill:#fdfdff;fill-opacity:0.99215686"
         id="path5192" />
      <path
         d="M 105.05154,144.41987 H 103.956 v -1.00769 h 1.09554 z m -0.062,6.73861 h -0.97152 v -5.77226 h 0.97152 z"
         style="stroke-width:0.26458332;fill:#fdfdff;fill-opacity:0.99215686"
         id="path5194" />
      <path
         d="m 111.87283,145.38622 -2.33578,5.77226 h -0.97668 l -2.32027,-5.77226 h 1.0542 l 1.788,4.59403 1.7725,-4.59403 z"
         style="stroke-width:0.26458332;fill:#fdfdff;fill-opacity:0.99215686"
         id="path5196" />
      <path
         d="m 113.80036,151.15848 h -1.23507 v -1.47278 h 1.23507 z"
         style="stroke-width:0.26458332;fill:#fdfdff;fill-opacity:0.99215686"
         id="path5198" />
      <path
         d="m 120.32709,150.79674 q -0.48576,0.23255 -0.92501,0.36174 -0.43408,0.12919 -0.925,0.12919 -0.62529,0 -1.14722,-0.18087 -0.52193,-0.18603 -0.894,-0.55811 -0.37724,-0.37207 -0.58395,-0.94051 -0.2067,-0.56844 -0.2067,-1.32808 0,-1.41593 0.77514,-2.22209 0.78032,-0.80615 2.05673,-0.80615 0.49609,0 0.97151,0.13953 0.48059,0.13952 0.8785,0.34106 v 1.08004 h -0.0517 q -0.44442,-0.34623 -0.91984,-0.53227 -0.47026,-0.18603 -0.91984,-0.18603 -0.82683,0 -1.30742,0.5581 -0.47542,0.55294 -0.47542,1.62781 0,1.04386 0.46509,1.60714 0.47025,0.5581 1.31775,0.5581 0.29455,0 0.59944,-0.0775 0.30489,-0.0775 0.54777,-0.20154 0.21188,-0.10852 0.39791,-0.22738 0.18604,-0.12402 0.29456,-0.21187 h 0.0517 z"
         style="stroke-width:0.26458332;fill:#fdfdff;fill-opacity:0.99215686"
         id="path5200" />
      <path
         d="m 126.49726,148.27493 q 0,1.41077 -0.72347,2.22726 -0.72347,0.81648 -1.93787,0.81648 -1.22473,0 -1.9482,-0.81648 -0.7183,-0.81649 -0.7183,-2.22726 0,-1.41076 0.7183,-2.22725 0.72347,-0.82166 1.9482,-0.82166 1.2144,0 1.93787,0.82166 0.72347,0.81649 0.72347,2.22725 z m -1.00252,0 q 0,-1.12138 -0.43925,-1.66398 -0.43925,-0.54777 -1.21957,-0.54777 -0.79065,0 -1.2299,0.54777 -0.43408,0.5426 -0.43408,1.66398 0,1.08521 0.43925,1.64848 0.43925,0.55811 1.22473,0.55811 0.77515,0 1.2144,-0.55294 0.44442,-0.55811 0.44442,-1.65365 z"
         style="stroke-width:0.26458332;fill:#fdfdff;fill-opacity:0.99215686"
         id="path5202" />
      <path
         d="m 136.42947,151.15848 h -0.97152 v -3.28662 q 0,-0.37207 -0.0362,-0.71831 -0.031,-0.34623 -0.13953,-0.55293 -0.11885,-0.22221 -0.34106,-0.3359 -0.22221,-0.11369 -0.64079,-0.11369 -0.40824,0 -0.81648,0.20671 -0.40825,0.20153 -0.81649,0.51676 0.0155,0.11886 0.0258,0.27905 0.0103,0.15503 0.0103,0.31006 v 3.69487 h -0.97152 v -3.28662 q 0,-0.38241 -0.0362,-0.72347 -0.031,-0.34624 -0.13953,-0.55294 -0.11885,-0.22221 -0.34106,-0.33073 -0.22221,-0.11369 -0.64079,-0.11369 -0.39791,0 -0.80098,0.19637 -0.39791,0.19637 -0.79582,0.50126 v 4.30982 h -0.97152 v -5.77226 h 0.97152 v 0.64079 q 0.45475,-0.37724 0.90434,-0.58911 0.45475,-0.21188 0.96635,-0.21188 0.58911,0 0.99735,0.24805 0.41341,0.24805 0.61495,0.6873 0.58911,-0.4961 1.07487,-0.71314 0.48576,-0.22221 1.0387,-0.22221 0.95084,0 1.40043,0.57878 0.45475,0.57361 0.45475,1.60714 z"
         style="stroke-width:0.26458332;fill:#fdfdff;fill-opacity:0.99215686"
         id="path5204" />
    </g>
  </g>
</svg>
