<?xml version="1.0" encoding="UTF-8" standalone="no"?>
<!-- Created with Inkscape (http://www.inkscape.org/) -->

<svg
   xmlns:osb="http://www.openswatchbook.org/uri/2009/osb"
   xmlns:dc="http://purl.org/dc/elements/1.1/"
   xmlns:cc="http://creativecommons.org/ns#"
   xmlns:rdf="http://www.w3.org/1999/02/22-rdf-syntax-ns#"
   xmlns:svg="http://www.w3.org/2000/svg"
   xmlns="http://www.w3.org/2000/svg"
   xmlns:sodipodi="http://sodipodi.sourceforge.net/DTD/sodipodi-0.dtd"
   xmlns:inkscape="http://www.inkscape.org/namespaces/inkscape"
   width="167.42012mm"
   height="46.228001mm"
   viewBox="0 0 167.42012 46.228001"
   version="1.1"
   id="svg8"
   inkscape:version="0.92.1 r15371"
   sodipodi:docname="StepIV.svg">
  <defs
     id="defs2">
    <linearGradient
       id="linearGradient6007"
       osb:paint="solid">
      <stop
         style="stop-color:#ed872d;stop-opacity:1;"
         offset="0"
         id="stop6005" />
    </linearGradient>
  </defs>
  <sodipodi:namedview
     id="base"
     pagecolor="#ffffff"
     bordercolor="#666666"
     borderopacity="1.0"
     inkscape:pageopacity="0.0"
     inkscape:pageshadow="2"
     inkscape:zoom="0.7"
     inkscape:cx="176.76123"
     inkscape:cy="121.90391"
     inkscape:document-units="mm"
     inkscape:current-layer="text12"
     showgrid="false"
     inkscape:measure-start="0,0"
     inkscape:measure-end="0,0"
     inkscape:window-width="1920"
     inkscape:window-height="1001"
     inkscape:window-x="-9"
     inkscape:window-y="-9"
     inkscape:window-maximized="1" />
  <metadata
     id="metadata5">
    <rdf:RDF>
      <cc:Work
         rdf:about="">
        <dc:format>image/svg+xml</dc:format>
        <dc:type
           rdf:resource="http://purl.org/dc/dcmitype/StillImage" />
        <dc:title></dc:title>
      </cc:Work>
    </rdf:RDF>
  </metadata>
  <g
     inkscape:label="Layer 1"
     inkscape:groupmode="layer"
     id="layer1"
     transform="translate(-18.662957,-113.21649)">
    <g
       aria-label="StepIV"
       style="font-style:normal;font-variant:normal;font-weight:normal;font-stretch:normal;font-size:10.58333302px;line-height:1.25;font-family:Montserrat;-inkscape-font-specification:'Montserrat, Normal';font-variant-ligatures:normal;font-variant-caps:normal;font-variant-numeric:normal;font-feature-settings:normal;text-align:start;letter-spacing:0px;word-spacing:0px;writing-mode:lr-tb;text-anchor:start;fill:#000000;fill-opacity:1;stroke:none;stroke-width:0.26458332"
       id="text12">
      <path
         d="m 32.277356,118.75369 q -2.5908,0 -4.2672,1.0668 -1.676399,1.0668 -1.676399,3.2512 0,2.1336 1.676399,3.302 1.6764,1.1176 7.112,2.4384 5.4864,1.3208 8.2296,3.7084 2.794,2.3876 2.794,7.0612 0,4.6228 -3.5052,7.5184 -3.5052,2.8956 -9.1948,2.8956 -8.331199,0 -14.782799,-5.7404 l 3.7592,-4.5212 q 5.384799,4.6736 11.175999,4.6736 2.8956,0 4.572,-1.2192 1.7272,-1.27 1.7272,-3.302 0,-2.0828 -1.6256,-3.2004 -1.5748,-1.1684 -5.4864,-2.0828 -3.9116,-0.9652 -5.9436,-1.7272 -2.031999,-0.8128 -3.606799,-2.0828 -3.1496,-2.3876 -3.1496,-7.3152 0,-4.9276 3.556,-7.5692 3.606799,-2.6924 8.889999,-2.6924 3.4036,0 6.7564,1.1176 3.3528,1.1176 5.7912,3.1496 l -3.2004,4.5212 q -1.5748,-1.4224 -4.2672,-2.3368 -2.6924,-0.9144 -5.334,-0.9144 z"
         style="font-style:normal;font-variant:normal;font-weight:normal;font-stretch:normal;font-size:50.79999924px;font-family:Montserrat;-inkscape-font-specification:'Montserrat, Normal';font-variant-ligatures:normal;font-variant-caps:normal;font-variant-numeric:normal;font-feature-settings:normal;text-align:start;writing-mode:lr-tb;text-anchor:start;stroke-width:0.26458332"
         id="path16"
         inkscape:connector-curvature="0" />
      <path
         d="m 59.208499,127.13569 v 13.716 q 0,1.9304 1.016,3.0988 1.016,1.1176 2.8448,1.1176 1.8288,0 3.5052,-1.778 l 2.3368,4.0132 q -2.9972,2.6924 -6.6548,2.6924 -3.6068,0 -6.197599,-2.4892 -2.54,-2.54 -2.54,-6.8072 v -13.5636 h -3.4036 v -4.572 h 3.4036 v -8.4836 h 5.689599 v 8.4836 h 7.112 v 4.572 z"
         style="font-style:normal;font-variant:normal;font-weight:normal;font-stretch:normal;font-size:50.79999924px;font-family:Montserrat;-inkscape-font-specification:'Montserrat, Normal';font-variant-ligatures:normal;font-variant-caps:normal;font-variant-numeric:normal;font-feature-settings:normal;text-align:start;writing-mode:lr-tb;text-anchor:start;stroke-width:0.26458332"
         id="path18"
         inkscape:connector-curvature="0" />
      <path
         d="m 98.576914,138.56569 h -21.1836 q 0.2032,2.9464 2.6924,4.7752 2.4892,1.778 5.6896,1.778 5.08,0 7.7216,-3.2004 l 3.2512,3.556 q -4.3688,4.5212 -11.3792,4.5212 -5.6896,0 -9.7028,-3.7592 -3.9624,-3.81 -3.9624,-10.16 0,-6.4008 4.064,-10.16 4.064,-3.7592 9.5504,-3.7592 5.5372,0 9.398,3.3528 3.8608,3.302 3.8608,9.144 z m -21.1836,-4.4704 h 15.494 q 0,-3.4036 -2.1336,-5.2324 -2.1336,-1.8288 -5.2832,-1.8288 -3.0988,0 -5.588,1.9304 -2.4892,1.8796 -2.4892,5.1308 z"
         style="font-style:normal;font-variant:normal;font-weight:normal;font-stretch:normal;font-size:50.79999924px;font-family:Montserrat;-inkscape-font-specification:'Montserrat, Normal';font-variant-ligatures:normal;font-variant-caps:normal;font-variant-numeric:normal;font-feature-settings:normal;text-align:start;writing-mode:lr-tb;text-anchor:start;stroke-width:0.26458332"
         id="path20"
         inkscape:connector-curvature="0" />
      <path
         d="m 119.26204,122.15729 q 5.4356,0 9.2964,3.7592 3.8608,3.7592 3.8608,10.0076 0,6.2484 -3.8608,10.16 -3.81,3.9116 -8.9408,3.9116 -5.08,0 -9.144,-4.4704 v 13.9192 h -5.6896 v -36.8808 h 5.6896 v 4.7244 q 3.3528,-5.1308 8.7884,-5.1308 z m -8.89,13.97 q 0,3.8608 2.3368,6.35 2.3368,2.4384 5.6896,2.4384 3.3528,0 5.842,-2.4384 2.4892,-2.4384 2.4892,-6.2992 0,-3.9116 -2.4384,-6.4516 -2.4384,-2.5908 -5.842,-2.5908 -3.4036,0 -5.7404,2.5908 -2.3368,2.54 -2.3368,6.4008 z"
         style="font-style:normal;font-variant:normal;font-weight:normal;font-stretch:normal;font-size:50.79999924px;font-family:Montserrat;-inkscape-font-specification:'Montserrat, Normal';font-variant-ligatures:normal;font-variant-caps:normal;font-variant-numeric:normal;font-feature-settings:normal;text-align:start;writing-mode:lr-tb;text-anchor:start;stroke-width:0.26458332"
         id="path22"
         inkscape:connector-curvature="0" />
      <path
         d="m 139.72808,114.08009 h 5.9944 v 35.5092 h -5.9944 z"
         style="font-style:normal;font-variant:normal;font-weight:normal;font-stretch:normal;font-size:50.79999924px;font-family:Montserrat;-inkscape-font-specification:'Montserrat, Normal';font-variant-ligatures:normal;font-variant-caps:normal;font-variant-numeric:normal;font-feature-settings:normal;text-align:start;writing-mode:lr-tb;text-anchor:start;fill:#ed872d;fill-opacity:1;stroke-width:0.26458332"
         id="path24"
         inkscape:connector-curvature="0" />
      <path
         d="m 171.80828,149.58929 h -6.7056 l -14.2748,-35.5092 h 6.7056 l 10.922,26.5176 10.922,-26.5176 h 6.7056 z"
         style="font-style:normal;font-variant:normal;font-weight:normal;font-stretch:normal;font-size:50.79999924px;font-family:Montserrat;-inkscape-font-specification:'Montserrat, Normal';font-variant-ligatures:normal;font-variant-caps:normal;font-variant-numeric:normal;font-feature-settings:normal;text-align:start;writing-mode:lr-tb;text-anchor:start;fill:#ed872d;fill-opacity:1;stroke-width:0.26458332"
         id="path26"
         inkscape:connector-curvature="0" />
    </g>
  </g>
</svg>
