<?xml version="1.0" standalone="no"?>
<!DOCTYPE svg PUBLIC "-//W3C//DTD SVG 20010904//EN"
 "http://www.w3.org/TR/2001/REC-SVG-20010904/DTD/svg10.dtd">
<svg version="1.0" xmlns="http://www.w3.org/2000/svg"
 width="716.000000pt" height="716.000000pt" viewBox="0 0 716.000000 716.000000"
 preserveAspectRatio="xMidYMid meet">
<metadata>
Created by potrace 1.11, written by Peter Selinger 2001-2013
</metadata>
<g transform="translate(0.000000,716.000000) scale(0.100000,-0.100000)"
fill="#000000" stroke="none">
<path d="M2033 6285 c0 -8 4 -12 9 -9 5 3 6 10 3 15 -9 13 -12 11 -12 -6z"/>
<path d="M2093 6285 c0 -8 4 -12 9 -9 5 3 6 10 3 15 -9 13 -12 11 -12 -6z"/>
<path d="M2353 6285 c0 -8 4 -12 9 -9 5 3 6 10 3 15 -9 13 -12 11 -12 -6z"/>
<path d="M2413 6285 c0 -8 4 -12 9 -9 5 3 6 10 3 15 -9 13 -12 11 -12 -6z"/>
<path d="M2690 6296 c0 -2 8 -10 18 -17 15 -13 16 -12 3 4 -13 16 -21 21 -21
13z"/>
<path d="M6253 6285 c0 -8 4 -12 9 -9 5 3 6 10 3 15 -9 13 -12 11 -12 -6z"/>
<path d="M6542 6285 c15 -16 20 -17 30 -6 11 11 10 13 0 7 -7 -4 -21 -2 -30 5
-15 12 -15 11 0 -6z"/>
<path d="M6673 6285 c0 -8 4 -12 9 -9 5 3 6 10 3 15 -9 13 -12 11 -12 -6z"/>
<path d="M6733 6285 c0 -8 4 -12 9 -9 5 3 6 10 3 15 -9 13 -12 11 -12 -6z"/>
<path d="M7010 6297 c0 -2 6 -10 14 -16 11 -9 16 -9 22 1 4 7 4 10 -1 6 -4 -4
-14 -3 -22 3 -7 6 -13 9 -13 6z"/>
<path d="M434 6279 c-4 -7 -3 -10 4 -5 6 3 13 2 16 -3 4 -6 -47 -9 -130 -7
-82 1 -142 -2 -150 -9 -13 -9 -17 -73 -13 -220 0 -11 0 -50 -1 -88 -1 -37 2
-71 5 -76 3 -6 2 -12 -2 -14 -9 -5 -7 -232 1 -254 3 -7 2 -13 -2 -13 -8 0 -6
-84 3 -107 2 -7 1 -13 -4 -13 -4 0 -5 -20 -1 -45 4 -25 4 -47 1 -50 -3 -3 -4
-70 -3 -148 3 -167 3 -154 2 -240 -1 -37 2 -71 5 -76 3 -6 2 -12 -2 -14 -9 -5
-7 -232 1 -254 3 -7 2 -13 -2 -13 -8 0 -6 -84 3 -107 2 -7 1 -13 -4 -13 -4 0
-5 -20 -1 -45 4 -25 4 -47 1 -50 -3 -3 -4 -70 -3 -148 3 -167 3 -154 2 -240
-1 -37 2 -71 5 -76 3 -6 2 -12 -2 -14 -9 -5 -7 -232 1 -254 3 -7 2 -13 -2 -13
-8 0 -6 -84 3 -107 2 -7 1 -13 -4 -13 -4 0 -5 -20 -1 -45 4 -25 4 -47 1 -50
-3 -3 -4 -70 -3 -148 3 -167 3 -154 2 -240 -1 -37 2 -71 5 -76 3 -6 2 -12 -2
-14 -9 -5 -7 -232 1 -254 3 -7 2 -13 -2 -13 -8 0 -6 -84 3 -107 2 -7 1 -13 -4
-13 -4 0 -5 -20 -1 -45 4 -25 4 -47 1 -50 -3 -3 -4 -70 -3 -148 3 -167 3 -154
2 -240 -1 -37 2 -71 5 -76 3 -6 2 -12 -2 -14 -9 -5 -7 -232 1 -254 3 -7 2 -13
-2 -13 -8 0 -6 -84 3 -107 2 -7 1 -13 -4 -13 -4 0 -5 -20 -1 -45 4 -25 4 -47
1 -50 -4 -4 -4 -169 0 -300 0 -5 0 -59 0 -120 -1 -139 -1 -165 0 -196 1 -26
46 -29 77 -5 15 11 21 13 15 5 -15 -18 -8 -30 13 -22 8 3 11 10 7 17 -3 6 2 3
13 -6 13 -11 24 -14 34 -8 8 5 21 5 30 0 20 -10 53 7 44 23 -4 7 -3 8 2 4 5
-5 9 -13 9 -18 0 -5 3 -9 8 -9 4 0 12 0 18 0 5 0 7 6 3 13 -5 7 -1 7 10 -2 25
-21 92 -17 119 5 14 12 17 13 9 3 -14 -18 -7 -30 14 -22 8 3 11 10 7 17 -3 6
2 3 13 -6 13 -11 24 -14 34 -8 9 5 22 5 30 0 18 -11 53 7 44 23 -4 7 -3 8 2 4
5 -5 9 -13 9 -18 0 -5 3 -9 8 -9 4 0 12 0 18 0 5 0 7 6 3 13 -5 7 -1 7 10 -2
25 -21 92 -17 119 5 14 12 17 13 9 3 -14 -18 -7 -30 14 -22 8 3 11 10 8 17 -4
6 1 4 10 -5 13 -12 27 -15 49 -10 18 4 48 7 67 6 35 -1 36 0 35 35 0 19 3 45
7 57 4 12 3 25 -1 27 -5 3 -7 27 -6 53 2 27 -2 54 -8 62 -7 9 -8 12 -1 8 7 -4
10 11 9 46 -1 29 3 58 8 65 5 6 5 12 1 12 -5 0 -9 34 -8 77 1 73 1 75 -15 54
-16 -21 -17 -21 -17 -2 0 11 4 17 8 15 4 -3 8 -1 8 5 0 5 -5 13 -10 16 -7 4
-7 12 0 25 12 23 13 33 2 26 -10 -6 -9 30 1 40 9 10 9 26 0 21 -5 -3 -8 5 -8
18 0 12 5 21 10 18 12 -4 14 -47 3 -58 -4 -4 -3 -15 1 -24 5 -9 8 -28 6 -44
-2 -15 1 -27 7 -27 5 0 8 6 5 13 -2 6 0 22 4 34 5 12 4 25 0 27 -5 3 -7 26 -6
51 2 25 -1 42 -6 39 -5 -3 -9 0 -9 5 0 6 4 11 9 11 5 0 9 10 10 23 0 12 0 29
1 37 0 19 -7 124 -9 129 0 2 -9 -3 -18 -10 -16 -13 -17 -12 -4 3 7 10 17 16
21 13 5 -3 11 -1 14 4 4 5 2 12 -2 15 -5 3 -8 22 -5 42 2 23 0 33 -7 29 -6 -3
-7 -12 -3 -18 4 -7 0 -6 -10 2 -18 15 -23 26 -7 16 6 -3 10 -2 10 4 0 5 -5 13
-10 16 -7 4 -7 12 0 25 12 23 13 33 2 26 -10 -6 -9 30 1 40 9 10 9 26 -1 21
-4 -3 -7 5 -7 18 0 12 5 21 10 18 12 -4 14 -47 3 -58 -4 -4 -3 -15 1 -24 5 -9
8 -28 6 -43 -2 -16 1 -28 7 -28 5 0 8 6 5 13 -2 6 0 22 4 34 5 12 4 25 0 27
-5 3 -7 26 -6 51 2 25 -1 42 -6 39 -5 -3 -9 0 -9 5 0 6 4 11 9 11 5 0 9 10 10
23 0 12 0 29 1 37 0 19 -7 124 -9 129 0 2 -9 -3 -19 -10 -15 -13 -16 -12 -3 3
7 10 17 16 21 13 5 -3 11 -1 14 4 4 5 3 12 -2 15 -4 2 -7 25 -6 50 1 25 -2 43
-7 40 -5 -3 -9 0 -9 5 0 6 4 11 9 11 5 0 9 10 10 23 0 12 0 29 1 37 0 19 -7
124 -9 129 0 2 -9 -3 -19 -10 -15 -13 -16 -12 -3 3 7 10 17 16 21 13 5 -3 11
-1 14 4 4 5 3 12 -2 15 -4 2 -7 25 -6 50 1 25 -2 43 -7 40 -5 -3 -9 0 -9 5 0
6 4 11 9 11 5 0 9 10 10 23 0 12 0 29 1 37 0 19 -7 124 -9 129 0 2 -9 -3 -18
-10 -16 -13 -17 -12 -4 3 7 10 17 16 21 13 5 -3 11 -1 14 4 4 5 3 12 -2 15 -4
2 -7 25 -6 50 1 25 -2 43 -7 40 -5 -3 -9 0 -9 5 0 6 4 11 9 11 5 0 9 10 10 23
0 12 0 29 1 37 0 19 -7 124 -9 129 0 2 -9 -3 -18 -10 -16 -13 -17 -12 -4 3 7
10 17 16 21 13 5 -3 11 -1 14 4 4 5 2 12 -2 15 -5 3 -8 22 -5 42 2 23 0 33 -7
29 -6 -3 -8 -11 -5 -16 10 -15 -2 -10 -16 8 -10 11 -10 14 -1 9 6 -4 12 -3 12
3 0 5 -5 13 -10 16 -7 4 -7 12 0 25 12 23 13 33 2 26 -10 -6 -9 30 1 40 9 10
9 26 0 21 -5 -3 -8 5 -8 18 0 12 5 21 10 18 12 -4 14 -47 3 -58 -4 -4 -3 -15
1 -24 5 -9 8 -28 6 -43 -2 -16 1 -28 7 -28 5 0 8 6 5 13 -2 6 0 22 4 34 5 12
4 25 0 27 -5 3 -7 26 -6 51 2 25 -1 42 -6 39 -5 -3 -9 0 -9 5 0 6 4 11 9 11 5
0 9 10 10 23 0 12 0 29 1 37 0 19 -7 124 -9 129 0 2 -9 -3 -18 -10 -16 -13
-17 -12 -4 3 7 10 17 16 21 13 5 -3 11 -1 14 4 4 5 2 12 -2 15 -5 3 -8 22 -5
42 2 23 0 33 -7 29 -6 -3 -7 -12 -3 -18 4 -7 0 -6 -10 2 -18 15 -23 26 -7 16
6 -3 10 -2 10 4 0 5 -5 13 -10 16 -7 4 -7 12 0 25 12 23 13 33 2 26 -10 -6 -9
30 1 40 12 12 8 26 -6 18 -9 -5 -9 -4 0 6 6 7 9 18 7 25 -3 7 -1 15 4 19 10 6
10 -59 0 -69 -4 -4 -3 -15 1 -24 5 -9 8 -28 6 -43 -2 -16 1 -28 7 -28 5 0 8 6
5 13 -2 6 0 22 4 34 5 12 4 25 0 27 -5 3 -7 27 -6 53 2 27 -2 54 -8 62 -7 9
-8 12 -1 8 7 -4 10 11 9 46 -1 29 3 58 8 65 5 6 5 12 1 12 -5 0 -9 34 -8 77 1
73 1 75 -15 54 -16 -21 -17 -21 -17 -2 0 11 4 17 8 15 4 -3 8 -1 8 5 0 5 -5
13 -10 16 -7 4 -7 12 0 25 12 23 13 33 2 26 -10 -6 -9 30 1 40 9 10 9 26 0 21
-5 -3 -8 5 -8 18 0 12 5 21 10 18 12 -4 14 -47 3 -58 -4 -4 -3 -15 1 -24 5 -9
8 -28 6 -43 -2 -16 1 -28 7 -28 5 0 8 6 5 13 -2 6 0 22 4 34 5 12 4 25 0 27
-5 3 -7 26 -6 51 2 25 -1 42 -6 39 -5 -3 -9 0 -9 5 0 6 4 11 9 11 5 0 9 10 10
23 0 12 0 29 1 37 0 19 -7 124 -9 129 0 2 -9 -3 -18 -10 -16 -13 -17 -12 -4 3
7 10 17 16 21 13 5 -3 11 -1 14 4 4 5 2 12 -2 15 -5 3 -8 22 -5 42 2 23 0 33
-7 29 -6 -3 -8 -11 -5 -16 10 -15 -2 -10 -16 8 -10 11 -10 14 -1 9 6 -4 12 -3
12 3 0 5 -5 13 -10 16 -7 4 -7 12 0 25 12 23 13 33 2 26 -10 -6 -9 30 1 40 12
12 8 26 -5 18 -10 -5 -10 -4 -1 6 6 7 9 18 7 25 -3 7 -1 15 4 19 10 6 10 -59
0 -69 -4 -4 -3 -15 1 -24 5 -9 8 -28 6 -43 -2 -16 1 -28 7 -28 5 0 8 6 5 13
-2 6 0 22 4 34 5 12 4 25 0 27 -5 3 -7 27 -6 53 2 27 -2 54 -8 62 -7 9 -8 12
-1 8 7 -4 10 11 9 46 -1 29 3 58 8 65 5 6 5 12 1 12 -5 0 -9 34 -8 77 1 73 1
75 -15 54 -16 -21 -17 -21 -17 -2 0 11 4 17 8 15 4 -3 8 -1 8 5 0 5 -5 13 -10
16 -7 4 -7 12 0 25 12 23 13 33 2 26 -10 -6 -9 30 1 40 9 10 9 26 0 21 -5 -3
-8 5 -8 18 0 12 5 21 10 18 12 -4 14 -47 3 -58 -4 -4 -3 -15 1 -24 5 -9 8 -28
6 -43 -2 -16 1 -28 7 -28 5 0 8 6 5 13 -2 6 0 22 4 34 5 12 4 25 0 27 -5 3 -7
26 -6 51 2 25 -1 42 -6 39 -5 -3 -9 0 -9 5 0 6 4 11 9 11 5 0 9 10 10 23 0 12
0 29 1 37 0 19 -7 124 -9 129 0 2 -9 -3 -18 -10 -16 -13 -17 -12 -4 3 7 10 17
16 21 13 5 -3 11 -1 14 4 4 5 2 12 -2 15 -5 3 -8 22 -5 42 2 23 0 33 -7 29 -6
-3 -7 -12 -3 -18 4 -7 0 -6 -10 2 -18 15 -23 26 -7 16 6 -3 10 -2 10 4 0 5 -5
13 -10 16 -7 4 -7 12 0 25 12 23 13 33 2 26 -10 -6 -9 30 1 40 9 10 9 26 0 21
-5 -3 -8 5 -8 18 0 12 5 21 10 18 12 -4 14 -47 3 -58 -4 -4 -3 -15 1 -24 5 -9
8 -28 6 -43 -2 -16 1 -28 7 -28 5 0 8 6 5 13 -2 6 0 22 4 34 5 12 4 25 0 27
-5 3 -7 26 -6 51 2 25 -1 42 -6 39 -5 -3 -9 0 -9 5 0 6 4 11 9 11 5 0 9 10 10
23 0 12 0 29 1 37 0 19 -7 124 -9 129 0 2 -9 -3 -18 -10 -16 -13 -17 -12 -4 3
7 10 17 16 21 13 5 -3 11 -1 14 4 4 5 3 12 -1 14 -5 3 -8 30 -7 61 1 52 -1 54
-19 44 -14 -7 -17 -7 -13 1 7 11 -17 16 -56 12 -10 -1 -18 3 -18 8 0 6 -8 11
-17 11 -15 0 -16 -2 -3 -10 12 -8 10 -10 -11 -10 -14 0 -30 5 -37 12 -15 15
-42 19 -42 6 0 -6 7 -8 15 -5 8 4 17 2 20 -3 4 -6 -13 -10 -39 -10 -25 0 -48
5 -51 10 -3 6 -12 10 -18 10 -7 0 -6 -4 3 -10 12 -8 10 -10 -10 -10 -15 0 -31
5 -38 12 -15 15 -42 19 -42 6 0 -6 7 -8 15 -5 8 4 17 2 20 -3 3 -5 -40 -8
-100 -7 -59 0 -109 5 -111 9 -3 4 -11 8 -17 8 -7 0 -6 -4 3 -10 12 -8 10 -10
-9 -10 -14 0 -32 7 -42 16 -13 12 -19 12 -25 3z m633 -74 c0 -20 -4 -19 -17 5
-8 15 -8 18 3 14 8 -3 14 -11 14 -19z m-3 -36 c-3 -6 -1 -15 5 -22 7 -9 5 -13
-7 -13 -12 0 -17 9 -17 27 0 17 4 25 12 22 7 -3 10 -9 7 -14z m3 -84 c0 -17
-13 -20 -21 -6 -4 5 0 12 6 14 7 3 13 6 14 6 0 1 1 -6 1 -14z m0 -42 c2 -6 -4
-13 -13 -17 -14 -5 -15 -4 -5 8 8 10 9 16 1 19 -6 3 -5 4 2 3 6 -1 13 -7 15
-13z m-7 -43 c-6 -11 -13 -20 -16 -20 -2 0 0 9 6 20 6 11 13 20 16 20 2 0 0
-9 -6 -20z m1 -34 c-9 -11 -9 -15 1 -19 9 -4 9 -6 1 -6 -19 -1 -27 20 -12 30
20 13 23 11 10 -5z m3 -277 c-3 -6 -1 -15 5 -22 7 -9 5 -13 -7 -13 -12 0 -17
9 -17 27 0 17 4 25 12 22 7 -3 10 -9 7 -14z m3 -84 c0 -17 -13 -20 -21 -6 -4
5 0 12 6 14 7 3 13 6 14 6 0 1 1 -6 1 -14z m0 -42 c2 -6 -4 -13 -13 -17 -14
-5 -15 -4 -5 8 8 10 9 16 1 19 -6 3 -5 4 2 3 6 -1 13 -7 15 -13z m-7 -43 c-6
-11 -13 -20 -16 -20 -2 0 0 9 6 20 6 11 13 20 16 20 2 0 0 -9 -6 -20z m1 -34
c-9 -11 -9 -15 1 -19 9 -4 9 -6 1 -6 -19 -1 -27 20 -12 30 20 13 23 11 10 -5z
m6 -281 c0 -17 -13 -20 -21 -6 -4 5 0 12 6 14 7 3 13 6 14 6 0 1 1 -6 1 -14z
m0 -42 c2 -6 -4 -13 -13 -17 -14 -5 -15 -4 -5 8 8 10 9 16 1 19 -6 3 -5 4 2 3
6 -1 13 -7 15 -13z m-7 -43 c-6 -11 -13 -20 -16 -20 -2 0 0 9 6 20 6 11 13 20
16 20 2 0 0 -9 -6 -20z m0 -40 c-12 -22 -21 -26 -17 -7 2 10 17 26 25 27 1 0
-2 -9 -8 -20z m7 -35 c0 -17 -13 -20 -21 -6 -4 5 0 12 6 14 7 3 13 6 14 6 0 1
1 -6 1 -14z m-2 -35 c3 -6 -1 -7 -9 -4 -18 7 -21 14 -7 14 6 0 13 -4 16 -10z
m-1 -281 c-3 -6 -1 -15 5 -22 7 -9 5 -13 -7 -13 -12 0 -17 9 -17 27 0 17 4 25
12 22 7 -3 10 -9 7 -14z m3 -84 c0 -17 -13 -20 -21 -6 -4 5 0 12 6 14 7 3 13
6 14 6 0 1 1 -6 1 -14z m0 -42 c2 -6 -4 -13 -13 -17 -14 -5 -15 -4 -5 8 8 10
9 16 1 19 -6 3 -5 4 2 3 6 -1 13 -7 15 -13z m-7 -43 c-6 -11 -13 -20 -16 -20
-2 0 0 9 6 20 6 11 13 20 16 20 2 0 0 -9 -6 -20z m1 -34 c-9 -11 -9 -15 1 -19
9 -4 9 -6 1 -6 -19 -1 -27 20 -12 30 20 13 23 11 10 -5z m6 -281 c0 -17 -13
-20 -21 -6 -4 5 0 12 6 14 7 3 13 6 14 6 0 1 1 -6 1 -14z m0 -42 c2 -6 -4 -13
-13 -17 -14 -5 -15 -4 -5 8 8 10 9 16 1 19 -6 3 -5 4 2 3 6 -1 13 -7 15 -13z
m-7 -43 c-6 -11 -13 -20 -16 -20 -2 0 0 9 6 20 6 11 13 20 16 20 2 0 0 -9 -6
-20z m0 -40 c-12 -22 -21 -26 -17 -7 2 10 17 26 25 27 1 0 -2 -9 -8 -20z m7
-35 c0 -17 -13 -20 -21 -6 -4 5 0 12 6 14 7 3 13 6 14 6 0 1 1 -6 1 -14z m-2
-35 c3 -6 -1 -7 -9 -4 -18 7 -21 14 -7 14 6 0 13 -4 16 -10z m-1 -281 c-3 -6
-1 -15 5 -22 7 -9 5 -13 -7 -13 -12 0 -17 9 -17 27 0 17 4 25 12 22 7 -3 10
-9 7 -14z m3 -84 c0 -17 -13 -20 -21 -6 -4 5 0 12 6 14 7 3 13 6 14 6 0 1 1
-6 1 -14z m0 -42 c2 -6 -4 -13 -13 -17 -14 -5 -15 -4 -5 8 8 10 9 16 1 19 -6
3 -5 4 2 3 6 -1 13 -7 15 -13z m-7 -43 c-6 -11 -13 -20 -16 -20 -2 0 0 9 6 20
6 11 13 20 16 20 2 0 0 -9 -6 -20z m1 -34 c-9 -11 -9 -15 1 -19 9 -4 9 -6 1
-6 -19 -1 -27 20 -12 30 20 13 23 11 10 -5z m3 -277 c-3 -6 -1 -15 5 -22 7 -9
5 -13 -7 -13 -12 0 -17 9 -17 27 0 17 4 25 12 22 7 -3 10 -9 7 -14z m3 -84 c0
-17 -13 -20 -21 -6 -4 5 0 12 6 14 7 3 13 6 14 6 0 1 1 -6 1 -14z m0 -42 c2
-6 -4 -13 -13 -17 -14 -5 -15 -4 -5 8 8 10 9 16 1 19 -6 3 -5 4 2 3 6 -1 13
-7 15 -13z m-7 -43 c-6 -11 -13 -20 -16 -20 -2 0 0 9 6 20 6 11 13 20 16 20 2
0 0 -9 -6 -20z m1 -34 c-9 -11 -9 -15 1 -19 9 -4 9 -6 1 -6 -19 -1 -27 20 -12
30 20 13 23 11 10 -5z m6 -81 c0 -20 -4 -19 -17 5 -8 15 -8 18 3 14 8 -3 14
-11 14 -19z m-3 -36 c-3 -6 -1 -15 5 -22 7 -9 5 -13 -7 -13 -12 0 -17 9 -17
27 0 17 4 25 12 22 7 -3 10 -9 7 -14z m3 -84 c0 -17 -13 -20 -21 -6 -4 5 0 12
6 14 7 3 13 6 14 6 0 1 1 -6 1 -14z m0 -42 c2 -6 -4 -13 -13 -17 -14 -5 -15
-4 -5 8 8 10 9 16 1 19 -6 3 -5 4 2 3 6 -1 13 -7 15 -13z m-7 -43 c-6 -11 -13
-20 -16 -20 -2 0 0 9 6 20 6 11 13 20 16 20 2 0 0 -9 -6 -20z m1 -34 c-9 -11
-9 -15 1 -19 9 -4 9 -6 1 -6 -19 -1 -27 20 -12 30 20 13 23 11 10 -5z m6 -81
c0 -20 -4 -19 -17 5 -8 15 -8 18 3 14 8 -3 14 -11 14 -19z m-3 -36 c-3 -6 -1
-15 5 -22 7 -9 5 -13 -7 -13 -12 0 -17 9 -17 27 0 17 4 25 12 22 7 -3 10 -9 7
-14z m3 -84 c0 -17 -13 -20 -21 -6 -4 5 0 12 6 14 7 3 13 6 14 6 0 1 1 -6 1
-14z m0 -42 c2 -6 -4 -13 -13 -17 -14 -5 -15 -4 -5 8 8 10 9 16 1 19 -6 3 -5
4 2 3 6 -1 13 -7 15 -13z m-7 -43 c-6 -11 -13 -20 -16 -20 -2 0 0 9 6 20 6 11
13 20 16 20 2 0 0 -9 -6 -20z m1 -34 c-9 -11 -9 -15 1 -19 9 -4 9 -6 1 -6 -19
-1 -27 20 -12 30 20 13 23 11 10 -5z m6 -81 c0 -20 -4 -19 -17 5 -8 15 -8 18
3 14 8 -3 14 -11 14 -19z m-3 -36 c-3 -6 -1 -15 5 -22 7 -9 5 -13 -7 -13 -12
0 -17 9 -17 27 0 17 4 25 12 22 7 -3 10 -9 7 -14z m3 -84 c0 -17 -13 -20 -21
-6 -4 5 0 12 6 14 7 3 13 6 14 6 0 1 1 -6 1 -14z m0 -42 c2 -6 -4 -13 -13 -17
-14 -5 -15 -4 -5 8 8 10 9 16 1 19 -6 3 -5 4 2 3 6 -1 13 -7 15 -13z m-7 -43
c-6 -11 -13 -20 -16 -20 -2 0 0 9 6 20 6 11 13 20 16 20 2 0 0 -9 -6 -20z m1
-34 c-9 -11 -9 -15 1 -19 9 -4 9 -6 1 -6 -19 -1 -27 20 -12 30 20 13 23 11 10
-5z m3 -277 c-3 -6 -1 -15 5 -22 7 -9 5 -13 -7 -13 -12 0 -17 9 -17 27 0 17 4
25 12 22 7 -3 10 -9 7 -14z m3 -84 c0 -17 -13 -20 -21 -6 -4 5 0 12 6 14 7 3
13 6 14 6 0 1 1 -6 1 -14z m0 -42 c2 -6 -4 -13 -13 -17 -14 -5 -15 -4 -5 8 8
10 9 16 1 19 -6 3 -5 4 2 3 6 -1 13 -7 15 -13z m-7 -43 c-6 -11 -13 -20 -16
-20 -2 0 0 9 6 20 6 11 13 20 16 20 2 0 0 -9 -6 -20z m1 -34 c-9 -11 -9 -15 1
-19 9 -4 9 -6 1 -6 -19 -1 -27 20 -12 30 20 13 23 11 10 -5z m6 -281 c0 -17
-13 -20 -21 -6 -4 5 0 12 6 14 7 3 13 6 14 6 0 1 1 -6 1 -14z m0 -42 c2 -6 -4
-13 -13 -17 -14 -5 -15 -4 -5 8 8 10 9 16 1 19 -6 3 -5 4 2 3 6 -1 13 -7 15
-13z m-7 -43 c-6 -11 -13 -20 -16 -20 -2 0 0 9 6 20 6 11 13 20 16 20 2 0 0
-9 -6 -20z m0 -40 c-12 -22 -21 -26 -17 -7 2 10 17 26 25 27 1 0 -2 -9 -8 -20z
m7 -35 c0 -17 -13 -20 -21 -6 -4 5 0 12 6 14 7 3 13 6 14 6 0 1 1 -6 1 -14z
m-2 -35 c3 -6 -1 -7 -9 -4 -18 7 -21 14 -7 14 6 0 13 -4 16 -10z m1 -84 c-1
-19 -4 -37 -8 -41 -10 -10 2 -36 14 -29 7 4 7 0 0 -12 -5 -11 -9 -34 -7 -52 1
-18 -2 -35 -7 -38 -4 -3 -9 5 -10 18 -2 34 -1 41 8 62 4 12 4 17 -3 13 -11 -7
-11 28 0 39 12 12 8 26 -5 18 -10 -6 -10 -5 -1 8 7 8 10 18 7 21 -5 5 3 27 10
27 1 0 2 -15 2 -34z"/>
<path d="M1916 6278 c3 -5 10 -6 15 -3 13 9 11 12 -6 12 -8 0 -12 -4 -9 -9z"/>
<path d="M2160 6280 c-9 -6 -10 -10 -3 -10 6 0 15 5 18 10 8 12 4 12 -15 0z"/>
<path d="M2480 6280 c-9 -6 -10 -10 -3 -10 6 0 15 5 18 10 8 12 4 12 -15 0z"/>
<path d="M2646 6278 c3 -5 10 -6 15 -3 13 9 11 12 -6 12 -8 0 -12 -4 -9 -9z"/>
<path d="M2810 6282 c0 -5 7 -9 15 -9 8 0 12 4 9 9 -3 4 -9 8 -15 8 -5 0 -9
-4 -9 -8z"/>
<path d="M6170 6286 c0 -2 7 -7 16 -10 8 -3 12 -2 9 4 -6 10 -25 14 -25 6z"/>
<path d="M6320 6280 c-9 -6 -10 -10 -3 -10 6 0 15 5 18 10 8 12 4 12 -15 0z"/>
<path d="M6486 6278 c3 -5 10 -6 15 -3 13 9 11 12 -6 12 -8 0 -12 -4 -9 -9z"/>
<path d="M6800 6280 c-9 -6 -10 -10 -3 -10 6 0 15 5 18 10 8 12 4 12 -15 0z"/>
<path d="M6966 6278 c3 -5 10 -6 15 -3 13 9 11 12 -6 12 -8 0 -12 -4 -9 -9z"/>
<path d="M1844 6224 c1 -29 5 -40 13 -37 7 3 13 9 13 15 0 5 -5 6 -12 2 -7 -4
-8 -3 -4 5 13 21 25 1 23 -39 -2 -36 0 -39 18 -34 20 6 20 6 0 -9 -17 -13 -18
-18 -6 -29 8 -8 11 -8 7 -1 -3 6 -1 15 5 19 8 4 9 3 5 -4 -4 -7 -2 -12 4 -12
6 0 8 -5 5 -10 -4 -6 -3 -16 3 -23 5 -7 8 -24 7 -38 -1 -21 2 -25 17 -21 15 4
17 -1 14 -27 -2 -17 0 -34 5 -36 4 -3 6 -14 4 -25 -2 -11 -1 -19 3 -19 21 3
31 -3 31 -18 2 -56 9 -87 24 -98 9 -7 18 -28 19 -48 2 -24 9 -37 21 -41 12 -3
17 -14 17 -40 0 -32 7 -40 31 -38 3 1 6 -6 6 -13 0 -11 -4 -12 -14 -4 -9 8
-13 8 -13 1 0 -6 9 -13 19 -17 13 -4 17 -12 14 -26 -4 -12 0 -25 8 -30 12 -8
12 -11 -1 -20 -12 -9 -11 -10 7 -6 19 4 22 1 19 -16 -2 -12 1 -30 6 -39 6 -13
5 -18 -4 -19 -7 0 -2 -4 10 -10 13 -5 29 -6 35 -2 7 3 3 -4 -8 -16 -13 -15
-15 -21 -6 -19 9 2 15 -6 16 -22 4 -76 4 -75 18 -57 11 15 12 14 14 -15 2 -18
3 -44 3 -57 0 -20 2 -21 15 -11 12 10 15 10 17 -1 1 -16 5 -32 8 -39 1 -3 3
-21 4 -40 1 -23 7 -35 16 -35 10 0 16 -11 16 -30 3 -53 4 -56 15 -49 8 4 9 0
4 -15 -4 -15 -1 -23 10 -27 9 -4 14 -12 11 -20 -3 -7 2 -18 10 -24 8 -7 14
-18 14 -24 0 -6 -5 -4 -11 4 -9 13 -10 13 -6 0 2 -8 12 -14 22 -13 13 1 16 -5
12 -23 -2 -14 -1 -27 3 -29 5 -3 6 -14 3 -25 -4 -15 -1 -18 13 -16 15 3 19 -3
22 -33 4 -59 8 -75 21 -79 10 -3 10 0 2 17 -7 11 -8 21 -3 21 10 0 22 -33 22
-63 0 -11 -5 -16 -12 -12 -7 4 -6 1 3 -7 9 -7 14 -19 11 -27 -3 -9 0 -11 8 -6
10 6 12 4 7 -9 -5 -12 0 -24 15 -36 17 -14 20 -21 11 -31 -9 -11 -8 -20 2 -39
17 -29 20 -19 4 13 -9 20 -9 20 4 5 8 -10 16 -16 18 -13 5 4 7 -8 11 -65 2
-24 8 -36 21 -38 15 -3 16 -6 6 -18 -10 -12 -10 -15 1 -12 10 2 14 -9 15 -39
0 -23 4 -45 9 -50 5 -4 5 2 2 14 -4 12 -2 24 3 28 7 4 8 -1 4 -11 -3 -10 -2
-15 3 -12 5 3 10 -12 11 -35 1 -29 8 -46 24 -58 12 -9 19 -21 15 -27 -3 -6 -1
-14 5 -18 8 -5 8 -9 -1 -14 -9 -6 -6 -12 12 -24 19 -12 24 -24 23 -51 0 -19 3
-36 7 -36 4 -1 12 -2 17 -3 5 0 13 -4 17 -8 3 -4 -3 -6 -15 -3 -11 2 -21 0
-21 -6 0 -8 13 -13 31 -11 7 1 9 -12 12 -72 1 -38 4 -43 19 -35 14 8 16 5 12
-15 -2 -14 0 -27 5 -31 6 -3 8 -12 4 -20 -3 -8 0 -15 7 -15 6 0 8 -5 4 -12 -5
-8 -2 -9 10 -5 14 5 17 2 16 -16 -1 -12 -1 -26 0 -32 1 -5 3 -20 4 -32 1 -25
18 -33 24 -11 2 9 0 8 -8 -2 -8 -10 -10 -11 -8 -2 6 21 23 13 21 -9 -2 -11 1
-18 6 -14 6 3 7 -6 2 -23 -9 -30 5 -62 24 -55 6 2 12 -14 13 -34 2 -21 4 -48
4 -60 1 -13 8 -23 16 -23 11 0 12 3 3 14 -8 10 -9 16 -1 21 5 3 10 5 11 3 7
-30 10 -49 12 -81 2 -31 5 -37 20 -33 9 2 15 0 12 -4 -3 -5 -1 -11 4 -14 6 -4
6 -18 1 -36 -7 -23 -5 -30 5 -30 8 0 19 -9 25 -20 6 -11 7 -20 3 -20 -4 0 -2
-5 4 -11 6 -6 9 -18 6 -27 -5 -11 -3 -13 8 -7 12 8 12 6 1 -8 -15 -18 -8 -39
11 -31 8 3 13 -9 15 -33 1 -21 9 -41 17 -46 8 -4 15 -13 15 -20 0 -7 -4 -6
-10 3 -7 12 -9 11 -8 -6 2 -16 7 -20 23 -17 15 4 17 2 6 -5 -9 -7 -10 -11 -2
-17 9 -5 9 -11 -1 -23 -11 -13 -10 -15 5 -9 9 3 17 2 17 -3 0 -6 -5 -10 -11
-10 -5 0 -7 -5 -4 -10 5 -8 11 -7 21 1 12 10 15 10 12 -2 -2 -8 -10 -20 -18
-26 -13 -11 -13 -12 3 -7 17 6 22 -4 18 -35 -2 -7 2 -10 8 -7 13 9 26 -13 27
-47 0 -16 7 -33 15 -38 8 -5 9 -9 3 -9 -6 0 -11 -7 -11 -15 0 -8 4 -15 8 -15
5 0 6 -8 3 -17 -5 -15 -4 -15 4 -3 6 8 8 19 4 25 -3 5 2 4 11 -4 13 -10 14
-17 7 -26 -7 -8 -7 -16 -2 -19 5 -3 8 -17 7 -31 -4 -29 -2 -30 18 -10 13 13
15 10 12 -23 -1 -20 0 -41 3 -47 9 -14 13 -36 13 -59 0 -18 0 -18 15 0 14 17
15 17 10 2 -3 -10 -2 -18 3 -18 5 0 7 -18 6 -40 -3 -41 8 -60 21 -39 4 8 3 9
-4 5 -7 -4 -12 -2 -12 3 0 6 7 11 16 11 10 0 13 -6 10 -18 -4 -10 0 -27 8 -37
10 -15 11 -24 4 -33 -8 -9 -8 -16 2 -25 10 -9 11 -9 6 1 -4 6 -2 12 3 12 6 0
11 -3 12 -7 0 -5 2 -17 5 -28 2 -11 5 -32 6 -47 2 -24 4 -26 18 -13 14 12 16
12 16 -5 0 -10 -5 -16 -11 -12 -6 3 -5 0 1 -9 6 -8 10 -22 9 -31 -2 -10 1 -18
7 -18 5 0 7 -9 3 -19 -3 -11 0 -23 6 -27 8 -4 9 -3 5 4 -4 7 -2 12 3 12 6 0
11 -3 12 -7 0 -5 3 -17 5 -28 3 -11 6 -35 6 -54 1 -24 7 -35 20 -39 17 -4 22
-14 19 -40 -1 -6 2 -12 8 -12 5 0 7 -9 4 -20 -3 -12 0 -20 6 -20 7 0 9 5 5 12
-4 6 -3 8 4 4 6 -3 11 -15 11 -26 1 -11 1 -29 2 -40 0 -17 9 -24 30 -22 3 1 6
-6 6 -14 0 -17 -13 -19 -20 -1 -4 9 -6 9 -6 -1 -1 -8 8 -16 18 -19 12 -3 17
-11 14 -19 -3 -8 1 -22 8 -31 8 -9 9 -14 3 -10 -6 3 -11 0 -11 -8 0 -11 5 -12
21 -3 19 10 20 10 7 -5 -9 -11 -10 -17 -2 -17 6 0 10 -3 10 -7 -1 -5 -1 -22 0
-39 1 -24 5 -31 19 -30 9 0 18 -6 18 -14 1 -8 3 -19 4 -25 1 -5 2 -14 1 -19
-1 -4 4 -15 11 -24 7 -9 8 -13 2 -9 -6 3 -11 0 -11 -8 0 -17 9 -19 23 -5 6 6
10 3 11 -10 1 -13 -2 -18 -10 -13 -7 3 -4 -3 6 -14 10 -11 17 -24 16 -29 -3
-20 2 -34 12 -34 5 0 7 6 3 13 -4 6 -3 9 1 5 5 -5 9 -24 11 -43 1 -20 8 -43
15 -52 8 -9 9 -14 2 -10 -7 5 -9 0 -6 -14 6 -21 7 -21 19 -4 12 16 13 16 13
-1 1 -94 11 -129 31 -107 3 4 -1 3 -7 -1 -7 -4 -13 -3 -13 2 0 6 6 12 14 15 9
4 13 0 11 -11 -1 -9 0 -21 3 -27 4 -5 7 -21 7 -35 0 -23 14 -35 25 -23 3 4 -1
3 -9 -2 -10 -5 -12 -4 -7 4 10 15 27 4 20 -13 -3 -8 -1 -17 5 -20 6 -4 6 -18
1 -35 -6 -23 -5 -31 8 -36 15 -6 15 -8 -2 -21 -11 -8 -15 -14 -9 -14 20 0 34
25 21 38 -9 9 -9 12 0 12 7 0 13 -3 13 -7 3 -19 8 -50 10 -74 2 -17 8 -25 16
-22 7 3 13 0 13 -5 0 -6 -8 -13 -17 -15 -13 -3 -11 -5 6 -6 18 -1 22 -5 18
-21 -5 -21 15 -44 28 -32 5 4 5 2 2 -5 -4 -6 1 -19 10 -29 16 -16 16 -17 1
-11 -12 4 -15 2 -11 -9 3 -8 11 -13 17 -11 6 2 18 1 27 -4 12 -6 26 -2 45 13
16 13 23 15 17 7 -15 -18 -8 -30 13 -22 8 3 11 10 7 17 -3 6 2 3 13 -6 13 -11
24 -14 34 -8 8 5 21 5 30 0 20 -10 53 7 44 23 -4 7 -3 8 2 4 5 -5 9 -13 9 -18
0 -5 3 -9 8 -9 4 0 12 0 18 0 5 0 7 6 3 13 -5 7 -1 7 10 -2 25 -21 92 -17 119
5 14 12 17 13 9 3 -14 -18 -7 -30 14 -22 8 3 11 10 7 17 -3 6 2 3 13 -6 13
-11 24 -14 34 -8 8 5 21 5 30 0 20 -10 53 7 44 23 -4 7 -3 8 2 4 5 -5 9 -13 9
-18 0 -5 3 -9 8 -9 4 0 12 0 18 0 5 0 7 6 3 13 -5 7 -1 7 10 -2 25 -21 92 -17
119 5 14 12 17 13 9 3 -14 -18 -7 -30 14 -22 8 3 11 10 7 17 -3 6 2 3 13 -6
13 -11 24 -14 34 -8 8 5 21 5 30 0 20 -10 53 7 44 23 -4 7 -3 8 2 4 5 -5 9
-13 9 -18 0 -5 3 -9 8 -9 4 0 12 0 18 0 5 0 7 6 3 13 -5 7 0 6 10 -3 33 -26
92 -7 79 27 -3 7 0 13 6 13 6 0 11 -5 11 -11 0 -5 5 -7 11 -3 8 5 4 13 -12 26
-23 19 -23 19 -1 8 12 -6 22 -9 23 -8 0 2 1 22 2 45 1 31 6 44 18 48 17 6 33
65 17 65 -5 0 -6 5 -3 11 4 6 13 8 21 5 19 -7 26 8 28 70 1 29 5 57 9 60 4 4
7 2 7 -4 0 -7 5 -12 11 -12 6 0 8 9 4 20 -4 13 -2 20 6 20 7 0 9 3 6 7 -4 3
-1 13 6 21 6 9 7 13 1 9 -6 -3 -11 0 -11 8 0 8 4 12 9 9 17 -11 29 7 16 24
-10 12 -10 14 0 8 12 -7 13 -2 15 55 1 14 7 26 14 26 6 0 10 -3 8 -7 -2 -3 0
-12 4 -18 5 -8 8 3 9 25 3 73 18 116 32 93 5 -8 9 2 10 24 3 74 4 83 17 83 9
0 10 -4 3 -12 -7 -9 -6 -14 3 -18 10 -4 13 3 12 25 -1 17 7 41 19 56 11 15 13
21 5 15 -13 -10 -16 -10 -16 2 0 8 9 15 19 15 10 0 18 4 18 10 0 5 -8 7 -17 4
-15 -5 -15 -3 2 11 11 9 19 18 18 20 -9 16 -1 36 12 31 12 -4 14 0 9 22 -4 21
-3 24 5 12 9 -12 11 -9 12 15 1 17 1 40 1 53 -1 12 3 22 9 22 6 0 7 -6 3 -12
-4 -7 1 -6 10 3 11 10 17 32 17 60 0 53 7 79 20 79 6 0 7 -6 2 -13 -4 -6 -8
-21 -10 -32 -1 -11 1 -14 3 -7 3 6 9 10 14 7 4 -2 7 3 7 13 0 63 4 102 11 101
4 -1 15 -1 25 0 14 1 16 5 8 19 -6 10 -6 24 -1 32 5 8 6 18 4 22 -3 4 2 8 10
8 10 0 13 6 9 17 -4 11 -3 14 6 9 6 -4 11 -4 10 1 -1 4 -1 21 0 36 1 19 5 26
14 21 9 -6 9 -4 0 7 -18 18 -16 27 5 25 9 0 17 6 17 14 0 8 3 20 6 25 3 6 5
26 4 46 0 26 3 35 12 32 7 -3 13 -9 13 -15 0 -5 -5 -6 -12 -2 -7 4 -8 3 -4 -5
4 -6 11 -9 16 -6 9 5 9 10 10 78 1 30 4 37 20 37 13 0 19 7 19 23 0 12 1 29 2
37 0 8 -1 21 -3 29 -2 7 3 16 11 18 9 4 11 -1 7 -18 -3 -13 -3 -18 0 -11 3 6
9 10 13 7 5 -2 6 7 3 22 -4 20 -2 24 9 18 11 -6 11 -5 2 5 -9 9 -9 19 -2 32 6
11 8 26 5 33 -3 9 1 12 14 10 12 -2 19 2 20 13 0 9 1 34 2 55 1 20 6 37 10 37
5 0 6 6 2 13 -4 7 -3 9 2 4 12 -11 12 -30 1 -38 -5 -3 -2 -9 5 -12 9 -3 14 3
15 17 6 82 11 110 23 114 7 3 10 0 6 -7 -4 -6 -2 -11 4 -11 6 0 10 8 9 18 -4
44 2 72 15 72 8 0 18 5 22 12 4 7 3 8 -4 4 -7 -4 -12 -1 -12 6 0 10 -3 9 -11
-2 -9 -13 -10 -13 -6 0 2 8 11 14 19 12 17 -3 25 19 24 61 -2 24 5 32 27 28 4
0 7 6 7 14 0 8 -6 15 -12 15 -9 0 -9 3 1 9 8 5 15 24 15 43 1 32 17 43 24 16
2 -9 0 -8 -8 2 -9 12 -11 12 -8 1 9 -31 26 -21 27 16 3 72 8 88 24 87 9 -1 16
7 16 17 1 11 1 28 2 39 0 17 9 24 29 22 3 0 6 14 7 31 1 18 4 43 6 57 3 14 5
29 6 34 0 5 8 3 16 -4 12 -10 14 -8 10 9 -2 12 0 21 5 21 4 0 7 12 5 26 -2 20
1 25 15 21 14 -3 17 2 15 27 -2 38 12 69 29 63 7 -3 13 1 13 8 0 10 -5 11 -19
4 -12 -6 -18 -6 -18 1 0 5 5 10 11 10 5 0 8 4 5 9 -4 5 4 7 16 3 20 -5 21 -3
10 10 -7 9 -9 19 -4 22 5 3 8 17 6 31 -2 20 0 24 11 15 9 -8 14 -6 19 5 3 9 2
13 -4 10 -6 -3 -10 -2 -10 4 0 5 5 11 11 13 7 2 12 23 12 46 0 44 10 61 23 41
4 -7 3 -9 -3 -6 -5 3 -10 -1 -10 -9 0 -10 4 -11 11 -4 15 15 17 43 3 52 -8 5
-7 8 4 8 11 0 15 9 14 30 -1 23 1 27 11 19 16 -13 27 19 27 79 1 43 1 43 17
22 15 -20 17 -20 15 -3 0 10 -5 25 -10 32 -5 9 -4 12 2 8 6 -4 13 0 17 8 3 8
0 15 -7 15 -8 0 -9 2 -1 8 6 4 10 15 8 24 -2 15 1 16 17 8 24 -13 24 -7 2 16
-16 16 -16 16 3 10 18 -5 20 -2 18 34 -1 22 3 40 8 40 5 0 7 4 4 9 -4 5 4 7
16 3 16 -4 19 -2 12 9 -19 32 7 98 27 69 9 -12 10 -12 5 3 -3 10 -6 20 -6 23
0 2 -8 1 -17 -3 -10 -3 -15 -3 -11 1 3 4 14 9 25 10 14 2 18 12 18 44 -1 35 2
41 16 37 12 -4 18 0 18 12 3 77 4 83 24 77 17 -5 17 -3 7 16 -8 15 -8 20 -1
16 7 -5 11 4 11 23 0 18 5 31 13 31 9 0 8 3 -2 9 -11 7 -9 10 8 16 13 4 21 15
22 31 1 13 2 34 3 46 0 12 8 23 16 25 12 4 12 3 1 -5 -9 -7 -10 -12 -2 -16 6
-4 12 -6 12 -4 3 7 9 56 10 91 1 37 11 47 25 25 4 -7 3 -8 -4 -4 -7 4 -12 3
-12 -2 0 -6 6 -12 13 -15 13 -5 15 2 18 82 2 28 6 38 18 37 15 -1 18 9 23 86
1 15 6 24 10 22 5 -3 6 -9 3 -14 -3 -5 -2 -11 3 -14 5 -3 9 0 10 7 7 64 18 91
32 82 5 -3 11 -1 15 4 3 6 -3 8 -13 6 -15 -3 -19 2 -19 23 0 15 2 21 4 14 3
-6 10 -9 15 -6 7 4 8 2 4 -4 -4 -7 -2 -12 3 -12 11 0 14 17 13 83 -1 29 3 37
16 37 15 0 15 -2 2 -10 -9 -6 -11 -10 -3 -10 7 0 10 -7 6 -17 -3 -10 -3 -15 1
-11 4 3 8 12 10 20 1 7 5 19 9 26 5 6 4 12 -2 12 -12 0 -4 58 10 76 5 6 3 16
-4 24 -9 10 -9 11 1 5 7 -4 17 -17 22 -29 9 -22 11 -9 13 81 0 18 4 30 9 27 4
-3 8 0 8 7 0 7 3 9 6 6 4 -4 2 -13 -5 -20 -9 -11 -8 -17 2 -25 10 -9 13 -4 12
26 0 20 2 42 4 47 3 6 6 15 6 20 0 6 5 10 10 10 6 0 9 -4 7 -10 -2 -5 0 -7 4
-3 4 5 9 20 11 35 7 58 10 67 29 75 16 7 16 8 -3 4 -16 -3 -23 1 -23 11 0 9 6
13 14 10 14 -6 28 26 30 67 1 10 8 22 16 25 18 7 22 21 23 77 1 22 7 41 13 41
6 0 11 -6 11 -13 0 -7 -5 -10 -10 -7 -6 3 -7 1 -3 -5 13 -22 23 -12 23 22 0
18 9 46 19 62 11 16 19 39 18 52 -1 12 3 22 8 22 5 0 6 9 3 20 -3 11 -2 20 3
20 6 0 12 -5 14 -12 3 -8 7 -6 11 5 3 9 1 19 -5 23 -7 5 -8 2 -3 -7 8 -12 6
-12 -8 0 -22 17 -21 21 3 16 22 -4 36 10 20 20 -6 4 -7 12 -3 18 4 7 8 19 8
27 0 8 7 14 16 14 11 -1 15 6 14 20 -4 38 -7 41 -15 16 -7 -21 -8 -22 -9 -5
-1 20 -7 20 -488 17 -269 -1 -495 -2 -504 -3 -12 0 -16 -11 -16 -41 0 -39 -17
-63 -37 -51 -5 3 -6 1 -2 -5 4 -6 14 -9 24 -6 11 4 10 1 -4 -8 -12 -7 -20 -21
-19 -30 2 -10 0 -18 -4 -18 -5 0 -7 -12 -4 -27 3 -26 3 -27 -6 -5 -11 24 -24
31 -15 7 3 -8 -1 -24 -9 -35 -9 -13 -13 -35 -10 -55 4 -34 -10 -55 -23 -34 -4
7 -3 9 3 6 5 -3 10 0 10 7 0 7 -5 13 -12 13 -6 0 -11 -18 -12 -41 -3 -61 -8
-81 -24 -81 -9 0 -14 -11 -14 -27 1 -15 -3 -24 -7 -22 -4 3 -5 -9 -3 -25 2
-17 0 -30 -3 -30 -26 4 -34 -3 -30 -26 3 -14 1 -25 -4 -25 -6 0 -8 -7 -4 -15
3 -9 -3 -19 -15 -26 -11 -6 -18 -17 -15 -24 3 -8 1 -17 -3 -19 -5 -3 -7 -17
-6 -31 4 -29 2 -30 -18 -11 -12 12 -14 9 -16 -22 -5 -90 -7 -97 -24 -94 -11 2
-16 -5 -16 -20 -1 -59 -3 -63 -32 -60 -4 1 -9 -12 -11 -28 -3 -17 0 -30 5 -30
5 0 4 -6 -2 -13 -6 -8 -7 -18 -3 -23 4 -4 0 -3 -9 4 -16 12 -29 7 -29 -12 0
-6 4 -5 9 2 7 11 9 11 14 -2 4 -10 1 -16 -7 -16 -8 0 -13 -10 -12 -22 0 -13
-4 -22 -11 -21 -9 2 -10 -4 -3 -21 8 -21 6 -24 -10 -21 -22 4 -36 -10 -21 -20
7 -3 7 -15 1 -29 -5 -13 -7 -26 -4 -29 2 -2 -4 -10 -13 -18 -16 -13 -17 -12
-4 4 9 11 10 17 2 17 -11 0 -15 -13 -12 -39 2 -7 -2 -11 -6 -8 -5 3 -8 -9 -7
-26 3 -34 -15 -66 -26 -48 -3 6 -7 -6 -8 -27 -2 -51 -6 -70 -18 -82 -7 -7 -11
-6 -11 4 0 8 3 13 7 11 4 -2 7 2 7 9 0 32 -24 2 -26 -32 -2 -59 -7 -75 -22
-81 -16 -7 -22 -25 -21 -58 2 -21 -8 -28 -30 -24 -5 0 -8 -18 -8 -40 0 -35 -3
-41 -18 -37 -21 6 -26 -18 -8 -41 8 -11 8 -13 -1 -8 -8 5 -12 -2 -12 -20 -2
-52 -4 -60 -18 -60 -9 0 -10 4 -3 11 13 13 13 26 0 26 -5 0 -9 -3 -9 -7 1 -5
0 -10 -1 -13 -1 -3 -4 -27 -6 -55 -6 -62 -10 -75 -26 -75 -9 0 -8 3 2 10 13 9
13 10 0 10 -13 0 -13 1 0 10 13 8 13 10 -1 10 -16 0 -19 -13 -22 -92 -1 -17
-7 -28 -15 -28 -12 0 -12 3 -1 18 13 15 12 16 -4 3 -9 -8 -16 -16 -13 -18 2
-3 0 -18 -4 -34 -6 -20 -5 -29 3 -29 7 0 6 -4 -3 -10 -8 -5 -11 -10 -6 -10 5
0 3 -6 -3 -13 -6 -8 -8 -17 -4 -21 4 -4 0 -4 -10 0 -18 7 -20 0 -20 -66 0 -19
-2 -29 -4 -22 -3 6 -8 10 -13 7 -4 -3 -6 5 -3 17 3 13 3 20 -1 17 -8 -7 -14
-47 -15 -92 -1 -17 -5 -26 -11 -22 -7 4 -9 -3 -6 -19 3 -18 1 -23 -10 -19 -10
4 -14 -2 -14 -21 0 -23 -9 -30 -31 -28 -4 1 -6 -7 -6 -16 0 -58 -4 -74 -16
-69 -8 3 -14 -1 -14 -8 0 -7 6 -11 14 -8 9 3 11 0 7 -10 -3 -9 -11 -14 -19
-11 -8 4 -11 -3 -10 -20 2 -14 -1 -26 -5 -26 -5 0 -7 -9 -5 -20 3 -16 1 -18
-14 -11 -17 10 -21 -5 -24 -96 -1 -12 -3 -21 -6 -21 -21 2 -29 -5 -33 -27 -3
-13 0 -26 6 -29 7 -3 7 -5 -1 -5 -7 -1 -10 -7 -7 -15 3 -8 0 -17 -7 -22 -7 -4
-10 -3 -6 3 3 5 0 10 -8 10 -18 0 -19 -9 -2 -26 9 -11 9 -13 0 -7 -14 8 -14 7
-18 -44 -2 -19 -4 -37 -4 -39 -1 -2 -7 1 -14 7 -14 12 -17 -3 -18 -83 -1 -16
-3 -24 -6 -17 -2 6 -10 9 -15 6 -7 -4 -8 -2 -4 4 4 7 2 12 -3 12 -9 0 -17 -64
-12 -94 1 -5 -5 -6 -14 -3 -14 6 -20 -4 -16 -27 1 -4 -3 -14 -9 -21 -7 -8 -7
-15 -1 -19 11 -7 3 -46 -10 -46 -5 0 -6 7 -3 15 4 8 1 15 -6 15 -6 0 -9 -4 -5
-9 3 -5 1 -12 -4 -16 -5 -3 -8 -14 -6 -25 2 -11 0 -22 -5 -25 -5 -3 -7 -12 -3
-20 4 -13 -5 -19 -27 -17 -3 0 -6 -14 -7 -31 -2 -18 -5 -43 -7 -57 -2 -14 -5
-29 -5 -34 -1 -5 -8 -3 -17 4 -8 8 -14 9 -13 4 1 -5 1 -22 0 -38 -1 -22 -5
-27 -18 -22 -15 5 -15 4 1 -9 19 -15 19 -15 -3 -15 -12 0 -19 -4 -16 -10 3 -5
0 -10 -7 -10 -8 0 -9 -3 -3 -8 8 -5 7 -22 0 -57 -8 -36 -13 -45 -18 -31 -4 10
-5 22 -2 26 3 5 1 11 -3 14 -5 3 -9 -12 -9 -32 -1 -94 -3 -107 -13 -92 -8 12
-10 12 -15 -2 -4 -9 -8 -23 -9 -32 -1 -8 -5 -18 -8 -22 -4 -3 -4 -12 -2 -18 3
-7 -3 -19 -13 -27 -16 -12 -17 -12 -6 2 10 13 10 16 -1 16 -15 0 -16 -14 -2
-36 6 -10 5 -12 -2 -7 -8 5 -12 -3 -13 -23 -2 -52 -4 -56 -21 -53 -12 2 -16
-3 -13 -17 2 -12 -1 -23 -6 -27 -6 -4 -5 -11 3 -21 10 -13 8 -14 -12 -11 -20
2 -25 -2 -26 -19 -1 -13 -2 -32 -3 -43 -1 -13 -8 -20 -21 -20 -14 0 -20 6 -18
18 2 11 -3 17 -14 16 -10 -1 -18 -1 -18 0 -1 0 -3 19 -6 41 -4 22 -11 43 -18
47 -7 5 -7 8 0 8 6 0 11 7 11 15 0 13 -4 12 -21 -2 -15 -13 -17 -14 -9 -2 10
12 10 18 1 27 -9 9 -9 12 2 12 10 0 8 4 -5 13 -12 9 -14 16 -7 21 6 4 9 13 5
22 -4 10 -9 12 -18 4 -9 -8 -14 -6 -18 4 -7 18 8 30 25 20 7 -4 8 -3 4 5 -4 6
-16 9 -26 6 -17 -5 -18 -3 -11 23 10 32 4 46 -19 54 -8 2 -15 16 -16 29 -1 41
-14 68 -30 62 -10 -4 -12 0 -8 11 3 9 0 24 -7 33 -10 12 -10 14 -2 9 10 -5 11
-1 4 17 -6 14 -8 27 -5 30 3 2 -2 7 -11 11 -12 4 -14 2 -5 -13 7 -14 6 -20 -3
-24 -9 -3 -12 7 -11 34 0 22 -3 39 -7 39 -4 0 -6 11 -5 24 2 14 -3 27 -11 30
-9 4 -11 1 -7 -6 5 -7 3 -8 -5 -3 -7 4 -11 18 -8 31 2 13 0 24 -4 24 -5 0 -6
7 -2 16 4 11 1 15 -12 12 -14 -2 -19 4 -21 27 -7 68 -12 96 -19 103 -5 4 -5
-1 -2 -10 3 -10 2 -20 -4 -23 -5 -4 -6 -11 -3 -17 5 -7 2 -8 -5 -3 -9 5 -10
10 -2 18 7 7 7 16 0 29 -7 13 -6 18 3 18 10 0 10 2 -1 9 -8 5 -10 14 -6 21 6
9 4 11 -5 5 -10 -6 -12 -4 -7 9 4 11 1 19 -11 24 -9 4 -18 14 -20 22 -3 12 -1
13 9 3 7 -7 17 -13 22 -13 5 0 0 8 -12 18 -12 9 -23 31 -24 47 -2 21 -8 30
-20 29 -11 -1 -17 6 -17 20 -1 49 -5 66 -17 66 -14 0 -15 2 -17 40 -1 24 -24
52 -37 44 -4 -2 -7 2 -6 9 2 51 -4 78 -15 71 -10 -6 -10 -4 0 7 6 7 12 20 12
29 0 9 -3 11 -8 5 -16 -22 -28 -11 -30 28 -2 23 -4 52 -4 64 -1 12 -5 20 -9
17 -16 -10 -34 8 -35 36 -1 16 3 27 7 24 5 -3 6 2 3 11 -5 13 -9 13 -22 3 -12
-10 -14 -10 -8 0 4 7 2 12 -4 12 -6 0 -10 8 -9 18 1 9 0 20 -1 25 -1 4 -3 13
-4 20 -1 6 -8 10 -16 9 -8 -2 -12 0 -8 4 4 4 2 14 -5 22 -10 13 -9 14 3 7 13
-8 13 -6 2 8 -8 9 -11 20 -8 25 8 13 -18 34 -29 24 -5 -4 -5 -1 -1 6 4 7 12
10 17 7 5 -4 9 1 9 10 0 12 -4 14 -19 6 -16 -9 -18 -6 -16 24 1 19 -3 35 -8
35 -6 0 -8 3 -4 6 3 4 -2 14 -11 23 -10 9 -12 12 -5 7 10 -6 12 -4 7 8 -3 9
-11 16 -16 16 -6 0 -8 9 -5 20 5 19 -23 47 -35 35 -2 -3 -4 13 -3 35 1 22 -2
40 -7 40 -5 0 -8 6 -7 13 3 24 -1 37 -12 37 -8 0 -8 -4 0 -14 9 -11 9 -16 0
-22 -7 -4 -9 -3 -5 4 3 6 1 14 -5 17 -5 4 -8 13 -5 21 3 7 1 16 -3 19 -5 3 -7
15 -3 27 4 17 2 20 -11 15 -11 -4 -17 -1 -17 8 0 8 6 13 13 11 6 -1 9 -1 4 1
-4 3 -5 9 -2 14 4 5 -1 6 -9 3 -11 -4 -14 2 -12 25 1 20 -3 31 -11 31 -7 0
-13 5 -13 11 0 5 6 7 13 3 7 -4 9 -3 4 2 -5 5 -14 9 -20 9 -6 0 -12 18 -13 40
-1 22 -3 43 -3 47 -1 3 -11 4 -23 1 -23 -5 -23 -5 -3 10 11 8 17 19 12 23 -4
4 -7 2 -7 -4 0 -7 -4 -12 -9 -12 -5 0 -8 11 -6 25 1 14 -1 28 -6 31 -4 2 -6
11 -2 19 3 10 -1 15 -13 15 -16 0 -17 -2 -4 -11 12 -8 12 -10 1 -7 -21 6 -22
36 -3 49 16 10 16 10 0 5 -10 -3 -18 2 -21 16 -3 11 -10 17 -16 13 -6 -3 -11
-1 -11 5 0 7 8 9 21 5 19 -6 20 -5 8 8 -8 8 -17 13 -21 10 -5 -2 -9 1 -9 6 -2
14 -6 30 -9 34 -1 1 -3 18 -3 37 -1 19 -5 34 -9 33 -5 -2 -11 -3 -14 -3 -4 0
-1 -6 5 -13 8 -10 7 -14 -3 -14 -8 0 -12 13 -12 39 1 22 -2 42 -6 44 -5 3 -5
10 -2 16 5 8 1 9 -12 4 -10 -4 -15 -4 -11 0 4 4 1 14 -6 22 -10 13 -9 15 4 10
9 -4 16 -1 16 7 0 7 -6 11 -14 8 -12 -5 -17 18 -16 73 0 6 -6 11 -13 11 -9 0
-10 -5 -3 -18 12 -24 11 -29 -4 -23 -8 3 -13 19 -12 40 0 25 -5 38 -18 45 -12
7 -16 16 -11 31 4 12 2 18 -4 14 -5 -3 -12 3 -15 14 -3 13 -1 18 6 14 9 -5 9
-4 0 6 -6 7 -9 19 -6 26 4 12 -6 18 -28 16 -3 -1 -6 5 -6 13 0 8 4 12 8 9 5
-2 2 8 -6 23 -8 16 -11 31 -5 38 9 11 -13 49 -23 38 -10 -10 -8 -25 2 -18 5 3
13 0 17 -7 4 -7 4 -10 -1 -6 -4 4 -13 4 -19 -2 -9 -6 -12 3 -12 34 -1 30 -7
49 -22 64 -12 12 -19 28 -16 37 4 8 2 15 -3 15 -5 0 -8 18 -7 40 0 22 -3 40
-9 40 -5 0 -7 -6 -4 -14 3 -8 0 -20 -8 -26 -12 -10 -13 -8 -10 11 2 12 1 27
-3 33 -3 6 -7 18 -7 26 0 8 -5 14 -11 13 -6 -1 -11 5 -11 12 0 11 4 12 14 3 7
-6 16 -8 20 -4 3 3 1 6 -5 6 -7 0 -12 7 -12 15 0 8 -6 12 -12 10 -9 -4 -14 7
-16 32 -2 34 -17 57 -32 48 -3 -2 -6 15 -6 38 -1 23 -6 43 -13 45 -6 2 -11 8
-11 13 0 6 6 7 13 3 7 -4 9 -3 4 2 -5 5 -14 9 -20 9 -7 0 -11 8 -9 18 2 9 -1
17 -7 17 -5 0 -8 14 -6 30 4 27 2 29 -15 20 -14 -7 -20 -7 -20 0 0 5 5 10 10
10 6 0 10 5 10 11 0 5 -4 8 -8 5 -5 -3 -9 7 -9 22 -2 71 -6 81 -26 70 -18 -9
-19 -7 -15 16 3 15 1 29 -4 32 -4 3 -6 10 -3 15 4 5 1 9 -5 9 -6 0 -8 5 -4 12
5 8 2 9 -9 5 -10 -3 -17 -2 -17 3 0 6 6 10 13 10 8 0 8 3 -2 9 -8 5 -15 26
-16 47 0 33 -4 37 -30 41 -17 3 -248 5 -515 6 l-486 2 0 -41z m1026 22 c0 -2
-8 -10 -17 -17 -16 -13 -17 -12 -4 4 13 16 21 21 21 13z m3285 -14 c-3 -3 -11
0 -18 7 -9 10 -8 11 6 5 10 -3 15 -9 12 -12z m-3209 -209 c-4 -4 -12 -1 -19 7
-9 10 -9 11 1 6 7 -4 12 -2 13 6 0 11 2 11 6 0 3 -7 2 -16 -1 -19z m4108 -18
c-4 -8 -8 -15 -10 -15 -2 0 -4 7 -4 15 0 8 4 15 10 15 5 0 7 -7 4 -15z m-5060
-81 c3 -8 2 -12 -4 -9 -6 3 -10 10 -10 16 0 14 7 11 14 -7z m4980 -80 c3 -8 2
-12 -4 -9 -6 3 -10 10 -10 16 0 14 7 11 14 -7z m-4937 -50 c-9 -9 -28 6 -21
18 4 6 10 6 17 -1 6 -6 8 -13 4 -17z m38 -74 c3 -5 1 -10 -4 -10 -6 0 -11 5
-11 10 0 6 2 10 4 10 3 0 8 -4 11 -10z m3793 -185 c-3 -3 -9 2 -12 12 -6 14
-5 15 5 6 7 -7 10 -15 7 -18z m-73 -175 c-3 -5 -12 -10 -18 -10 -7 0 -6 4 3
10 19 12 23 12 15 0z m-3438 -355 c0 -8 -4 -15 -9 -15 -10 0 -11 14 -1 23 9
10 10 9 10 -8z m3158 -325 c-3 -5 -12 -10 -18 -10 -7 0 -6 4 3 10 19 12 23 12
15 0z m-2995 -80 c0 -5 -2 -10 -4 -10 -3 0 -8 5 -11 10 -3 6 -1 10 4 10 6 0
11 -4 11 -10z m1024 -46 c3 -8 2 -12 -4 -9 -6 3 -10 10 -10 16 0 14 7 11 14
-7z m-963 -127 c-10 -9 -11 -8 -5 6 3 10 9 15 12 12 3 -3 0 -11 -7 -18z m2613
-518 c-3 -5 -10 -7 -15 -3 -5 3 -7 10 -3 15 3 5 10 7 15 3 5 -3 7 -10 3 -15z
m-1295 -195 c4 3 8 -1 8 -9 0 -11 -4 -12 -14 -4 -7 6 -13 17 -12 23 0 7 2 6 6
-2 2 -6 8 -10 12 -8z m2209 -79 c-3 -3 -9 2 -12 12 -6 14 -5 15 5 6 7 -7 10
-15 7 -18z m-91 -190 c0 -8 -4 -12 -9 -9 -5 3 -6 10 -3 15 9 13 12 11 12 -6z
m-2937 -199 c0 -2 -8 -10 -17 -17 -16 -13 -17 -12 -4 4 13 16 21 21 21 13z
m1674 -411 c-4 -8 -8 -15 -10 -15 -2 0 -4 7 -4 15 0 8 4 15 10 15 5 0 7 -7 4
-15z m-1440 -191 c3 -8 2 -12 -4 -9 -6 3 -10 10 -10 16 0 14 7 11 14 -7z
m1036 -16 c0 -4 -4 -8 -9 -8 -6 0 -12 4 -15 8 -3 5 1 9 9 9 8 0 15 -4 15 -9z
m1315 -68 c3 -5 1 -10 -4 -10 -6 0 -11 5 -11 10 0 6 2 10 4 10 3 0 8 -4 11
-10z m-1115 -200 c8 -15 8 -18 -3 -14 -8 3 -14 11 -14 19 0 20 4 19 17 -5z
m-45 -80 c3 -6 -1 -7 -9 -4 -18 7 -21 14 -7 14 6 0 13 -4 16 -10z m1000 -120
c3 -5 1 -10 -4 -10 -6 0 -11 5 -11 10 0 6 2 10 4 10 3 0 8 -4 11 -10z m-1991
-35 c3 -9 0 -15 -8 -15 -7 0 -13 7 -13 15 0 8 4 15 8 15 4 0 9 -7 13 -15z
m1916 -165 c0 -5 -4 -10 -10 -10 -5 0 -10 5 -10 10 0 6 5 10 10 10 6 0 10 -4
10 -10z m-326 -795 c3 -8 1 -15 -4 -15 -6 0 -10 7 -10 15 0 8 2 15 4 15 2 0 6
-7 10 -15z"/>
<path d="M1935 5989 c-4 -6 -5 -12 -2 -15 2 -3 7 2 10 11 7 17 1 20 -8 4z"/>
<path d="M5955 5880 c3 -5 8 -10 11 -10 2 0 4 5 4 10 0 6 -5 10 -11 10 -5 0
-7 -4 -4 -10z"/>
<path d="M5923 5775 c0 -7 6 -11 14 -8 7 3 13 6 13 8 0 2 -6 5 -13 8 -8 3 -14
-1 -14 -8z"/>
<path d="M5885 5689 c-4 -6 -5 -12 -2 -15 2 -3 7 2 10 11 7 17 1 20 -8 4z"/>
<path d="M3186 5483 c-6 -14 -5 -15 5 -6 7 7 10 15 7 18 -3 3 -9 -2 -12 -12z"/>
<path d="M5806 5492 c-3 -5 1 -15 8 -21 11 -10 14 -9 12 3 -3 21 -13 29 -20
18z"/>
<path d="M3313 5173 c-15 -5 -17 -23 -4 -23 5 0 11 7 15 15 3 8 4 15 3 14 -1
0 -8 -3 -14 -6z"/>
<path d="M5600 5016 c0 -2 8 -10 18 -17 15 -13 16 -12 3 4 -13 16 -21 21 -21
13z"/>
<path d="M5530 4805 c0 -8 4 -15 8 -15 5 0 9 7 9 15 0 8 -4 15 -9 15 -4 0 -8
-7 -8 -15z"/>
<path d="M5487 4719 c7 -7 15 -10 18 -7 3 3 -2 9 -12 12 -14 6 -15 5 -6 -5z"/>
<path d="M6456 4512 c-3 -5 1 -9 9 -9 8 0 12 4 9 9 -3 4 -7 8 -9 8 -2 0 -6 -4
-9 -8z"/>
<path d="M6376 4313 c-6 -14 -5 -15 5 -6 7 7 10 15 7 18 -3 3 -9 -2 -12 -12z"/>
<path d="M3696 4211 c-4 -5 -2 -12 3 -15 5 -4 12 -2 15 3 4 5 2 12 -3 15 -5 4
-12 2 -15 -3z"/>
<path d="M5280 4208 c0 -4 4 -8 9 -8 6 0 12 4 15 8 3 5 -1 9 -9 9 -8 0 -15 -4
-15 -9z"/>
<path d="M2646 4195 c4 -8 8 -15 10 -15 2 0 4 7 4 15 0 8 -4 15 -10 15 -5 0
-7 -7 -4 -15z"/>
<path d="M2685 4110 c-3 -6 1 -7 9 -4 18 7 21 14 7 14 -6 0 -13 -4 -16 -10z"/>
<path d="M5200 4015 c0 -8 4 -15 10 -15 5 0 7 7 4 15 -4 8 -8 15 -10 15 -2 0
-4 -7 -4 -15z"/>
<path d="M5045 3651 c-3 -5 -2 -12 3 -15 5 -3 9 1 9 9 0 17 -3 19 -12 6z"/>
<path d="M3980 3520 c13 -24 17 -25 17 -5 0 8 -6 16 -14 19 -11 4 -11 1 -3
-14z"/>
<path d="M6056 3517 c3 -10 9 -15 12 -12 3 3 0 11 -7 18 -10 9 -11 8 -5 -6z"/>
<path d="M5977 3329 c7 -7 15 -10 18 -7 3 3 -2 9 -12 12 -14 6 -15 5 -6 -5z"/>
<path d="M3007 3317 c-3 -8 1 -14 8 -14 7 0 11 6 8 14 -3 7 -6 13 -8 13 -2 0
-5 -6 -8 -13z"/>
<path d="M4173 3035 c0 -7 6 -11 14 -8 7 3 13 6 13 8 0 2 -6 5 -13 8 -8 3 -14
-1 -14 -8z"/>
<path d="M4760 2976 c0 -2 8 -10 18 -17 15 -13 16 -12 3 4 -13 16 -21 21 -21
13z"/>
<path d="M3166 2914 c-4 -9 -4 -19 -1 -22 3 -3 5 0 5 7 0 7 4 10 8 7 5 -3 9 1
9 9 0 20 -13 19 -21 -1z"/>
<path d="M5655 2520 c3 -5 8 -10 11 -10 2 0 4 5 4 10 0 6 -5 10 -11 10 -5 0
-7 -4 -4 -10z"/>
<path d="M4560 2486 c0 -2 8 -10 18 -17 15 -13 16 -12 3 4 -13 16 -21 21 -21
13z"/>
<path d="M4453 2364 c0 -16 13 -19 21 -5 3 5 0 11 -7 14 -8 3 -14 -1 -14 -9z"/>
<path d="M3656 1715 c-9 -26 -7 -32 5 -12 6 10 9 21 6 23 -2 3 -7 -2 -11 -11z"/>
<path d="M5130 1241 c0 -5 7 -12 16 -15 14 -5 15 -4 4 9 -14 17 -20 19 -20 6z"/>
<path d="M5066 1035 c-9 -26 -7 -32 5 -12 6 10 9 21 6 23 -2 3 -7 -2 -11 -11z"/>
<path d="M3960 944 c0 -8 5 -12 10 -9 6 4 8 11 5 16 -9 14 -15 11 -15 -7z"/>
</g>
</svg>
